<svg class="animated" id="freepik_stories-analysis" xmlns="http://www.w3.org/2000/svg" viewBox="0 0 500 500" version="1.1" xmlns:xlink="http://www.w3.org/1999/xlink" xmlns:svgjs="http://svgjs.com/svgjs"><style>svg#freepik_stories-analysis:not(.animated) .animable {opacity: 0;}svg#freepik_stories-analysis.animated #freepik--background-complete--inject-136 {animation: 1s 1 forwards cubic-bezier(.36,-0.01,.5,1.38) zoomOut;animation-delay: 0s;}svg#freepik_stories-analysis.animated #freepik--Floor--inject-136 {animation: 1s 1 forwards cubic-bezier(.36,-0.01,.5,1.38) slideLeft;animation-delay: 0s;}svg#freepik_stories-analysis.animated #freepik--Shadow--inject-136 {animation: 1s 1 forwards cubic-bezier(.36,-0.01,.5,1.38) slideUp;animation-delay: 0s;}svg#freepik_stories-analysis.animated #freepik--Board--inject-136 {animation: 1s 1 forwards cubic-bezier(.36,-0.01,.5,1.38) fadeIn;animation-delay: 0s;}svg#freepik_stories-analysis.animated #freepik--Chair--inject-136 {animation: 1s 1 forwards cubic-bezier(.36,-0.01,.5,1.38) zoomOut;animation-delay: 0s;}svg#freepik_stories-analysis.animated #freepik--character-2--inject-136 {animation: 1s 1 forwards cubic-bezier(.36,-0.01,.5,1.38) slideUp;animation-delay: 0s;}svg#freepik_stories-analysis.animated #freepik--character-1--inject-136 {animation: 1s 1 forwards cubic-bezier(.36,-0.01,.5,1.38) slideLeft;animation-delay: 0s;}            @keyframes zoomOut {                0% {                    opacity: 0;                    transform: scale(1.5);                }                100% {                    opacity: 1;                    transform: scale(1);                }            }                    @keyframes slideLeft {                0% {                    opacity: 0;                    transform: translateX(-30px);                }                100% {                    opacity: 1;                    transform: translateX(0);                }            }                    @keyframes slideUp {                0% {                    opacity: 0;                    transform: translateY(30px);                }                100% {                    opacity: 1;                    transform: inherit;                }            }                    @keyframes fadeIn {                0% {                    opacity: 0;                }                100% {                    opacity: 1;                }            }        </style><g id="freepik--background-complete--inject-136" class="animable" style="transform-origin: 256.475px 228.44px;"><circle cx="431.53" cy="93.54" r="26.43" style="fill: rgb(235, 235, 235); transform-origin: 431.53px 93.54px;" id="ellmqlc8ielt" class="animable"></circle><circle cx="432.74" cy="94.13" r="25.22" style="fill: rgb(219, 219, 219); transform-origin: 432.74px 94.13px;" id="elppry3lm3fof" class="animable"></circle><g id="eltp60889732p"><circle cx="432.74" cy="94.13" r="23.62" style="fill: rgb(255, 255, 255); transform-origin: 432.74px 94.13px; transform: rotate(-85.29deg);" class="animable" id="elout91ritruo"></circle></g><g id="el0i4grt62hvj"><path d="M455.83,89.12c-10.75,6.51-28.43,17.21-38.32,23.07a23.71,23.71,0,0,1-6.45-8.68l32.68-30.29A23.62,23.62,0,0,1,455.83,89.12Z" style="fill: rgb(235, 235, 235); opacity: 0.5; transform-origin: 433.445px 92.705px;" class="animable" id="el08x0y07ks6yc"></path></g><g id="eln3pgmdfoiv"><path d="M456.35,95a23.3,23.3,0,0,1-1.56,7.68l-29.46,13.93a22.75,22.75,0,0,1-3.72-1.59C430.51,109.82,446.77,100.46,456.35,95Z" style="fill: rgb(235, 235, 235); opacity: 0.5; transform-origin: 438.98px 105.805px;" class="animable" id="elare5277itiq"></path></g><rect x="432.52" y="72.22" width="0.46" height="3.58" style="fill: rgb(199, 199, 199); transform-origin: 432.75px 74.01px;" id="elfn41o9y6wfw" class="animable"></rect><g id="elkhhjodqzox"><rect x="422.46" y="74.92" width="0.46" height="3.58" style="fill: rgb(199, 199, 199); transform-origin: 422.69px 76.71px; transform: rotate(-30deg);" class="animable" id="elbjn5dqqfu2a"></rect></g><g id="elqvfudw4mkqm"><rect x="415.09" y="82.28" width="0.46" height="3.58" style="fill: rgb(199, 199, 199); transform-origin: 415.32px 84.07px; transform: rotate(-60deg);" class="animable" id="elsl7q76cie8r"></rect></g><rect x="410.84" y="93.9" width="3.58" height="0.46" style="fill: rgb(199, 199, 199); transform-origin: 412.63px 94.13px;" id="el40v2zn8x52a" class="animable"></rect><g id="eljhshgklmjp"><rect x="413.53" y="103.96" width="3.58" height="0.46" style="fill: rgb(199, 199, 199); transform-origin: 415.32px 104.19px; transform: rotate(-30deg);" class="animable" id="eln4zbn28bln"></rect></g><g id="elq3wliuqvfbq"><rect x="420.9" y="111.32" width="3.58" height="0.46" style="fill: rgb(199, 199, 199); transform-origin: 422.69px 111.55px; transform: rotate(-60.03deg);" class="animable" id="eltnul959gn5c"></rect></g><rect x="432.52" y="112.46" width="0.46" height="3.58" style="fill: rgb(199, 199, 199); transform-origin: 432.75px 114.25px;" id="elrwputernj8" class="animable"></rect><g id="ele8fnv11xnki"><rect x="442.58" y="109.76" width="0.46" height="3.58" style="fill: rgb(199, 199, 199); transform-origin: 442.81px 111.55px; transform: rotate(-30deg);" class="animable" id="el6ns3kakmyvh"></rect></g><g id="elywsoytbdmt"><rect x="449.94" y="102.4" width="0.46" height="3.58" style="fill: rgb(199, 199, 199); transform-origin: 450.17px 104.19px; transform: rotate(-60deg);" class="animable" id="elykeslib1nd"></rect></g><rect x="451.07" y="93.9" width="3.58" height="0.46" style="fill: rgb(199, 199, 199); transform-origin: 452.86px 94.13px;" id="ellwwtdo0hiah" class="animable"></rect><g id="elxtvuxjrhpe"><rect x="448.38" y="83.84" width="3.58" height="0.46" style="fill: rgb(199, 199, 199); transform-origin: 450.17px 84.07px; transform: rotate(-30.01deg);" class="animable" id="el70p9rk8sq86"></rect></g><g id="ell9ts10klhun"><rect x="441.01" y="76.48" width="3.58" height="0.46" style="fill: rgb(199, 199, 199); transform-origin: 442.8px 76.71px; transform: rotate(-60.03deg);" class="animable" id="el0si80p9cwbdm"></rect></g><polygon points="433.09 73.84 433.87 95.72 431.62 95.69 432.48 73.83 433.09 73.84" style="fill: rgb(199, 199, 199); transform-origin: 432.745px 84.775px;" id="el6aaamlamjw8" class="animable"></polygon><polygon points="446.72 86.5 432 95.89 430.93 93.93 446.43 85.96 446.72 86.5" style="fill: rgb(166, 166, 166); transform-origin: 438.825px 90.925px;" id="eljd3hlswkpd" class="animable"></polygon><path d="M433.51,94.13a.77.77,0,1,1-.77-.77A.77.77,0,0,1,433.51,94.13Z" style="fill: rgb(199, 199, 199); transform-origin: 432.74px 94.13px;" id="elklr22z9a2p" class="animable"></path><path d="M343.84,332.31s15.66-3.55,24.24-11.45,13.37-22.07,13.37-22.07a133.68,133.68,0,0,0-17.56,4.61,29.69,29.69,0,0,0-5.31,7.51,36.51,36.51,0,0,1,0-5.37,23.85,23.85,0,0,0-5.57,3.38C345.85,315.15,343.84,332.31,343.84,332.31Z" style="fill: rgb(219, 219, 219); transform-origin: 362.645px 315.55px;" id="el0zooducyk3k" class="animable"></path><path d="M371.68,305.67c2.13-1.48,4.3-2.9,6.43-4.39a.12.12,0,0,0-.13-.21c-4,2.41-8,5-11.86,7.68-1.34.94-2.66,1.92-4,2.92l.27-.47c.47-.78,1-1.55,1.46-2.32a32.76,32.76,0,0,1,3.33-4.44c0-.05,0-.13-.08-.07-1.22,1.4-2.44,2.79-3.55,4.28-.53.71-1,1.45-1.49,2.2-.24.39-.48.78-.7,1.18l-.24.4c-2,1.59-4,3.25-5.87,5q-1.74,1.63-3.37,3.36c.61-1.89,1.14-3.81,1.84-5.67a.05.05,0,0,0-.1,0c-.68,2-1.43,3.92-2,5.94q-1.8,1.94-3.42,4c0-.08,0-.17.05-.25.18-.74.37-1.48.56-2.21.38-1.42.8-2.82,1.28-4.21a24.59,24.59,0,0,1,4.2-7.95c.05-.05,0-.12-.07-.07a30.46,30.46,0,0,0-6,12.52q-.26,1-.48,2c-.08.35-.17.72-.23,1.08q-.72,1-1.38,1.95a67.65,67.65,0,0,0-6.63,13,152.22,152.22,0,0,0-5,15.64.08.08,0,0,0,.16,0c3.07-9.16,6.19-18.45,11.43-26.64a61.3,61.3,0,0,1,3.58-5,30,30,0,0,0,7.61-1.52,33.8,33.8,0,0,0,7.63-3.69,43,43,0,0,0,3.91-2.95c.06-.05,0-.13-.06-.08a31.45,31.45,0,0,1-7.18,4.34,39.25,39.25,0,0,1-7.9,2.65c-1.15.25-2.32.44-3.5.6a65.87,65.87,0,0,1,4.62-5.12c.53-.53,1.07-1,1.62-1.54a36.76,36.76,0,0,1,5.78-3.31c2.57-1.24,5.09-2.56,7.63-3.85,1.44-.73,2.86-1.47,4.3-2.18.06,0,0-.12-.05-.09-2.58,1.24-5.19,2.41-7.79,3.6-2.44,1.11-4.91,2.24-7.26,3.56l-.3.17c2.12-1.84,4.32-3.6,6.57-5.3Q368.47,307.9,371.68,305.67Z" style="fill: rgb(166, 166, 166); transform-origin: 356.334px 328.846px;" id="elxs2sgd1wjjn" class="animable"></path><path d="M370.79,313.74c-1.28.56-2.57,1.05-3.83,1.64s-2.53,1.32-3.76,2.05c-.05,0,0,.1.05.08,1.25-.6,2.51-1.16,3.75-1.78s2.52-1.32,3.82-1.89C370.88,313.82,370.85,313.71,370.79,313.74Z" style="fill: rgb(166, 166, 166); transform-origin: 367.016px 315.624px;" id="el6s87cm0zv9r" class="animable"></path><path d="M293,253.42a22.35,22.35,0,0,1,4.67,13c.06,1.4-.17,3.36-.33,5.66a37.21,37.21,0,0,1,10.22,8.73,18.51,18.51,0,0,0-10.33-2.47,32.78,32.78,0,0,0,.6,4.68,17.35,17.35,0,0,1,6.64,1.31,14.79,14.79,0,0,0-6,1.19c2.79,8.88,11.09,18,34,21.87a48.11,48.11,0,0,0-4.06-32.23C321.55,261.66,293,253.42,293,253.42Z" style="fill: rgb(219, 219, 219); transform-origin: 313.31px 280.405px;" id="ely8dq1olu7if" class="animable"></path><path d="M340.39,345.38q-.58-5.69-1.48-11.34a225,225,0,0,0-4.62-22.42A88.94,88.94,0,0,0,331,301.4a14,14,0,0,0,.09-1.83c0-.74,0-1.47,0-2.21,0-1.46-.08-2.93-.21-4.39a53.07,53.07,0,0,0-1.41-8.59c-.42-1.63-.9-3.24-1.38-4.85a.05.05,0,1,0-.1,0,64,64,0,0,1,1.69,8.57,82.49,82.49,0,0,1,.77,8.6c0,.79,0,1.57,0,2.36,0,.33,0,.67,0,1a73.23,73.23,0,0,0-3.85-8,97.86,97.86,0,0,0-7.85-11.73,5.07,5.07,0,0,0-.18-1.28c-.11-.51-.22-1-.34-1.53q-.35-1.57-.78-3.12c-.57-2.08-1.32-4.08-2-6.13a.05.05,0,1,0-.1,0c.61,2,1,4.13,1.47,6.19.23,1,.46,2,.68,3.07l.33,1.54a.52.52,0,0,0,0,.11c-.93-1.17-1.87-2.32-2.84-3.45-4.37-5.13-9.17-9.86-14-14.56-.59-.58-1.2-1.14-1.8-1.71-.05-.05-.12,0-.07.08,4.61,4.81,9.15,9.68,13.45,14.77,1,1.21,2,2.44,3,3.68-.52-.36-1-.7-1.56-1-1.33-.87-2.68-1.72-4.07-2.5s-2.79-1.54-4.22-2.24-3-1.33-4.46-2.15c-.06,0-.11.07-.05.09a33.42,33.42,0,0,1,4.18,2.32c1.39.83,2.79,1.66,4.15,2.53s2.7,1.69,4,2.56c1.12.73,2.21,1.52,3.37,2.18a109.91,109.91,0,0,1,7.34,10.69,80.87,80.87,0,0,1,3.79,7.19l-.82-.36-2.1-.93-4.05-1.77c-2.57-1.11-5.18-2.14-7.7-3.37a34.34,34.34,0,0,1-4.11-2.28c-.06,0-.11.05-.05.09,4.69,3.24,10,5.52,15.16,7.82l2.25,1c.62.27,1.24.58,1.88.82a80,80,0,0,1,3.87,10.61,215.6,215.6,0,0,1,5,22.16c1.31,7.48,2.2,15,2.89,22.58.08.94.17,1.89.27,2.83a.3.3,0,0,0,.6,0C341.19,353,340.79,349.2,340.39,345.38Z" style="fill: rgb(166, 166, 166); transform-origin: 320.119px 308.3px;" id="eleza00dedage" class="animable"></path><path d="M326.46,282.12c-.42-2.32-1-4.6-1.67-6.88a.05.05,0,1,0-.1,0c.58,2.24,1,4.52,1.41,6.79s.81,4.64,1.14,7a0,0,0,0,0,.06,0A61.76,61.76,0,0,0,326.46,282.12Z" style="fill: rgb(166, 166, 166); transform-origin: 325.995px 282.11px;" id="elbqe96pljz8g" class="animable"></path><path d="M316.59,288.44a42,42,0,0,0-5-2.8c-.84-.43-1.69-.84-2.53-1.25s-1.78-.78-2.64-1.21c-.06,0-.12.06-.05.09.83.42,1.63.93,2.45,1.38l2.54,1.39a56.74,56.74,0,0,0,5.08,2.62A.13.13,0,0,0,316.59,288.44Z" style="fill: rgb(166, 166, 166); transform-origin: 311.493px 285.931px;" id="elkydx1k9k5c" class="animable"></path><g id="elotye0ghxnqh"><path d="M344.13,305.19s14.48-3.46,21.13-13.18c6.36-9.28,8.41-25.1,8.57-26.49-.26,1.28-3.25,15.1-13.11,21.54C353.17,292,345.87,296.06,344.13,305.19Z" style="fill: rgb(166, 166, 166); opacity: 0.1; transform-origin: 358.98px 285.355px;" class="animable" id="el7971eqfhxu2"></path></g><path d="M357.5,280.16a18.51,18.51,0,0,0-5.34,8.8s0,0,0,0a21.73,21.73,0,0,1,5.37-8.73C357.62,280.19,357.55,280.11,357.5,280.16Z" style="fill: rgb(166, 166, 166); transform-origin: 354.867px 284.552px;" id="elsdojlt7ya0j" class="animable"></path><path d="M344.13,305.19s14.48-3.46,21.13-13.18c6.36-9.28,8.41-25.1,8.57-26.49a.35.35,0,0,0,0-.1s-7,9.88-14.25,12.4S342,289.05,344.13,305.19Z" style="fill: rgb(219, 219, 219); transform-origin: 358.84px 285.305px;" id="el3w3c1yu1mx" class="animable"></path><path d="M371.28,270.87a58.06,58.06,0,0,1-4.48,7.66,30.64,30.64,0,0,1-6,6.13c-2,1.56-4,3-6,4.51l.05-.07c.37-.56.77-1.09,1.19-1.62.82-1.06,1.73-2.06,2.64-3.05,1.8-1.95,3.64-3.87,5.25-6a22.34,22.34,0,0,0,2.33-3.75c0-.06-.07-.09-.1,0-2.35,4.9-7.05,8-10.39,12.16a21.42,21.42,0,0,0-1.34,1.83,7.66,7.66,0,0,0-.84,1.48,30.68,30.68,0,0,0-4.94,5,20.29,20.29,0,0,1,.58-2.81,13.94,13.94,0,0,1,1.54-3.67c0-.06-.06-.12-.09-.06a17.26,17.26,0,0,0-1.69,3.65,12.82,12.82,0,0,0-.53,3.13h0a28.52,28.52,0,0,0-1.95,3l.18-.93c.28-1.44.6-2.88,1-4.31a25.87,25.87,0,0,1,3.48-8.16s-.05-.11-.09-.06a31.54,31.54,0,0,0-3.86,8c-.46,1.42-.83,2.87-1.15,4.32-.16.72-.31,1.43-.44,2.15-.07.37-.15.75-.21,1.13a52.92,52.92,0,0,0-3.35,9.82A145.32,145.32,0,0,0,339,328.69a150.41,150.41,0,0,0-1,19.45c0,.81.06,1.63.1,2.44,0,.21.33.24.34,0,.14-3.22.22-6.43.41-9.64s.47-6.43.82-9.63a169.45,169.45,0,0,1,3-18.73c1.17-5.29,2.69-10.63,5.59-15.27a28.79,28.79,0,0,1,5.23-6.21c2-1.82,4.25-3.42,6.39-5.11a35.22,35.22,0,0,0,5.87-5.64,46.21,46.21,0,0,0,4.6-7.48l1-2C371.4,270.87,371.31,270.81,371.28,270.87Z" style="fill: rgb(166, 166, 166); transform-origin: 354.676px 310.796px;" id="elk3hjewp1z7o" class="animable"></path><path d="M368.78,273a49.2,49.2,0,0,1-3.23,5.64,0,0,0,0,0,.07,0,39.63,39.63,0,0,0,3.26-5.65C368.91,273,368.81,272.93,368.78,273Z" style="fill: rgb(166, 166, 166); transform-origin: 367.218px 275.804px;" id="el0a5rki62vhtj" class="animable"></path><path d="M291,298.79s-.23,20.58,12.08,26.52,18.9,1,27.27,3h0c-.32-.49-6.29-9.07-15.79-11.44C304.75,314.42,293.93,307.36,291,298.79Z" style="fill: rgb(219, 219, 219); transform-origin: 310.675px 313.574px;" id="els2hsiz2d0wr" class="animable"></path><g id="elmfrg76w38g"><path d="M291,298.79s-.23,20.58,12.08,26.52,18.9,1,27.27,3h0a46.23,46.23,0,0,0-14-4.13C308.55,323.23,293.72,318.17,291,298.79Z" style="fill: rgb(166, 166, 166); opacity: 0.1; transform-origin: 310.675px 313.574px;" class="animable" id="el8lj2t6fhqn8"></path></g><path d="M331.13,328.66a20.61,20.61,0,0,0-4.9-3.31c-.26-.13-.53-.23-.8-.34s-.27-.32-.41-.48c-.37-.38-.76-.75-1.16-1.1a17.27,17.27,0,0,0-2.48-1.78c-2-1.2-4.27-2-6.36-3.15-.06,0-.11.06,0,.09,1,.53,2,1.12,3,1.71s2,1.11,2.92,1.72a19.91,19.91,0,0,1,2.44,1.83c.22.19.42.4.63.61a31.49,31.49,0,0,0-4.16-1.11c-2.25-.46-4.53-.78-6.78-1.26a31.59,31.59,0,0,1-3.27-.88c-1-.82-2-1.64-3-2.53a25.43,25.43,0,0,1-3.19-3.53s-.13,0-.09.06a38,38,0,0,0,5.05,5.57c-.53-.21-1.06-.42-1.57-.66a25.3,25.3,0,0,1-10.49-8.72c0-.06-.13,0-.09.05a28.65,28.65,0,0,0,8.48,8.15,25.53,25.53,0,0,0,5.36,2.54,50.49,50.49,0,0,0,6.67,1.57,47.17,47.17,0,0,1,6.52,1.55,19.9,19.9,0,0,1,5.47,2.88,25.57,25.57,0,0,1,7.38,9.15,45.94,45.94,0,0,1,4.06,15c0,.22.37.22.35,0C340.11,343.68,337.8,334.67,331.13,328.66Z" style="fill: rgb(166, 166, 166); transform-origin: 318.562px 331.915px;" id="elc2e8kuh5kp9" class="animable"></path><path d="M316.84,322a7,7,0,0,0-2.53-2.29,9.41,9.41,0,0,1-3-2.49c0-.06-.13,0-.09.05a10.23,10.23,0,0,0,2.66,2.38,9.37,9.37,0,0,1,2.9,2.4A0,0,0,1,0,316.84,322Z" style="fill: rgb(166, 166, 166); transform-origin: 314.026px 319.622px;" id="el57d49gkihlx" class="animable"></path><polygon points="323.38 343.86 323.94 355.18 325.65 389.77 351.47 389.77 353.19 355.18 353.75 343.86 323.38 343.86" style="fill: rgb(235, 235, 235); transform-origin: 338.565px 366.815px;" id="el78t6abcvsbc" class="animable"></polygon><polygon points="323.38 343.86 323.94 355.18 353.19 355.18 353.75 343.86 323.38 343.86" style="fill: rgb(219, 219, 219); transform-origin: 338.565px 349.52px;" id="elhiqi8xg024h" class="animable"></polygon><g id="elzmbmchpp1n9"><rect x="321.56" y="339.13" width="34" height="10.8" style="fill: rgb(235, 235, 235); transform-origin: 338.56px 344.53px; transform: rotate(180deg);" class="animable" id="elxh9q5iiujl7"></rect></g><path d="M80,168.33l-4.44,9.79,3,1.35a2.56,2.56,0,0,1,1.48,2.24c0,.53.08,1.06.16,1.6a2.58,2.58,0,0,1-1,2.47l-2.68,1.91,6.26,8.74,2.68-1.91a2.55,2.55,0,0,1,2.67-.18,14.85,14.85,0,0,0,1.46.67,2.57,2.57,0,0,1,1.64,2.12l.32,3.28,10.69-1.06-.32-3.29a2.54,2.54,0,0,1,1.19-2.39l.66-.45c.21-.15.43-.31.63-.48a2.54,2.54,0,0,1,2.64-.36l3,1.37,4.44-9.79-3-1.36a2.59,2.59,0,0,1-1.49-2.24,14.24,14.24,0,0,0-.15-1.59,2.57,2.57,0,0,1,1-2.47l2.68-1.92-6.26-8.74-2.68,1.92a2.55,2.55,0,0,1-2.67.17,15.65,15.65,0,0,0-1.45-.65A2.54,2.54,0,0,1,98.85,165l-.33-3.28-10.69,1.06.32,3.28A2.54,2.54,0,0,1,87,168.4a7.66,7.66,0,0,0-.66.45c-.22.15-.43.31-.64.47a2.53,2.53,0,0,1-2.65.37Zm9.89,5.55a8.81,8.81,0,1,1-2,12.28A8.8,8.8,0,0,1,89.9,173.88Z" style="fill: rgb(235, 235, 235); transform-origin: 95.02px 181.065px;" id="elqvtixtheq3" class="animable"></path><path d="M436,266.78l-6.52,3.76,1.15,2a1.79,1.79,0,0,1-.06,1.88c-.2.31-.39.64-.56,1a1.8,1.8,0,0,1-1.59,1h-2.31v7.53h2.31a1.8,1.8,0,0,1,1.59,1,10.38,10.38,0,0,0,.56,1,1.79,1.79,0,0,1,.06,1.88l-1.15,2,6.52,3.76,1.16-2a1.8,1.8,0,0,1,1.66-.88l.55,0,.56,0a1.8,1.8,0,0,1,1.65.87l1.16,2,6.52-3.76-1.15-2a1.77,1.77,0,0,1,.07-1.88,10.21,10.21,0,0,0,.56-1,1.78,1.78,0,0,1,1.59-1h2.3v-7.53h-2.3a1.78,1.78,0,0,1-1.59-1c-.17-.33-.36-.65-.56-1a1.76,1.76,0,0,1-.07-1.87l1.15-2-6.52-3.76-1.15,2a1.8,1.8,0,0,1-1.66.88l-.56,0-.55,0a1.8,1.8,0,0,1-1.66-.88Zm3.37,7.2a6.17,6.17,0,1,1-6.17,6.16A6.16,6.16,0,0,1,439.41,274Z" style="fill: rgb(235, 235, 235); transform-origin: 439.37px 280.185px;" id="elelr955ys73a" class="animable"></path><path d="M55.57,149.3l4.57,6,1.83-1.4a1.76,1.76,0,0,1,1.87-.18c.34.16.69.3,1,.43a1.8,1.8,0,0,1,1.19,1.45l.3,2.29,7.47-1-.3-2.28a1.79,1.79,0,0,1,.78-1.71c.31-.21.6-.44.89-.68a1.79,1.79,0,0,1,1.85-.31l2.13.89,2.89-7L79.94,145a1.8,1.8,0,0,1-1.08-1.53c0-.19,0-.37-.06-.56s0-.36-.08-.54a1.77,1.77,0,0,1,.65-1.76l1.84-1.41-4.57-6-1.84,1.4a1.78,1.78,0,0,1-1.87.18,9.32,9.32,0,0,0-1-.43,1.8,1.8,0,0,1-1.19-1.45l-.3-2.29-7.47,1,.3,2.29a1.81,1.81,0,0,1-.77,1.71,10,10,0,0,0-.89.68,1.81,1.81,0,0,1-1.86.31l-2.13-.89-2.89,7,2.13.89A1.78,1.78,0,0,1,57.91,145l.06.55c0,.19.05.37.09.55a1.79,1.79,0,0,1-.66,1.76Zm6.7-4.28a6.17,6.17,0,1,1,6.91,5.33A6.16,6.16,0,0,1,62.27,145Z" style="fill: rgb(235, 235, 235); transform-origin: 68.385px 144.25px;" id="el7zvhdaumjwm" class="animable"></path></g><g id="freepik--Floor--inject-136" class="animable" style="transform-origin: 250px 389.77px;"><polygon points="36.58 389.77 89.94 389.52 143.29 389.44 250 389.27 356.71 389.43 410.06 389.52 463.42 389.77 410.06 390.01 356.71 390.1 250 390.27 143.29 390.1 89.94 390.01 36.58 389.77" style="fill: rgb(38, 50, 56); transform-origin: 250px 389.77px;" id="el81tyjahedg" class="animable"></polygon></g><g id="freepik--Shadow--inject-136" class="animable" style="transform-origin: 256.495px 437.495px;"><ellipse cx="387.09" cy="418.95" rx="83.21" ry="13.22" style="fill: rgb(235, 235, 235); transform-origin: 387.09px 418.95px;" id="elir50knyqord" class="animable"></ellipse><ellipse cx="220.4" cy="444.68" rx="177.71" ry="24.58" style="fill: rgb(235, 235, 235); transform-origin: 220.4px 444.68px;" id="el31plp7wyfy5" class="animable"></ellipse></g><g id="freepik--Board--inject-136" class="animable" style="transform-origin: 250.005px 150.705px;"><rect x="114.11" y="65.34" width="271.62" height="179.53" style="fill: rgb(235, 235, 235); transform-origin: 249.92px 155.105px;" id="elwcrinu21i1f" class="animable"></rect><rect x="107.65" y="56.54" width="284.71" height="8.79" style="fill: rgb(69, 90, 100); transform-origin: 250.005px 60.935px;" id="eljwmzfggw99c" class="animable"></rect><rect x="127.2" y="89.93" width="42.89" height="50.82" style="fill: rgb(255, 255, 255); transform-origin: 148.645px 115.34px;" id="el9k7jrtc8cwa" class="animable"></rect><path d="M150.19,93.39a1.55,1.55,0,1,1-1.54-1.54A1.54,1.54,0,0,1,150.19,93.39Z" style="fill: rgb(69, 90, 100); transform-origin: 148.64px 93.4px;" id="elbgiqx16zau" class="animable"></path><path d="M135.36,100.11c4.34-.33,8.68-.35,13-.4s8.67.07,13,.4c-4.34.34-8.67.36-13,.41S139.7,100.45,135.36,100.11Z" style="fill: rgb(235, 235, 235); transform-origin: 148.36px 100.115px;" id="el8kbcic43e4i" class="animable"></path><path d="M135.36,104.13a61.25,61.25,0,0,1,14.15,0,62.77,62.77,0,0,1-14.15,0Z" style="fill: rgb(235, 235, 235); transform-origin: 142.435px 104.125px;" id="eldq9l3c07apj" class="animable"></path><path d="M135.36,108.14c3-.31,6-.38,9-.4s6,.09,9,.4c-3,.32-6,.39-9,.41S138.38,108.46,135.36,108.14Z" style="fill: rgb(235, 235, 235); transform-origin: 144.36px 108.145px;" id="el81nl9xino0s" class="animable"></path><path d="M135.36,112.16c3.77-.31,7.54-.39,11.31-.4s7.54.08,11.3.4c-3.76.32-7.53.39-11.3.4S139.13,112.47,135.36,112.16Z" style="fill: rgb(235, 235, 235); transform-origin: 146.665px 112.16px;" id="elgfkp5mvrfp" class="animable"></path><path d="M135.36,116.18c3.28-.32,6.55-.39,9.82-.41s6.55.09,9.83.41c-3.28.31-6.55.39-9.83.4S138.64,116.49,135.36,116.18Z" style="fill: rgb(235, 235, 235); transform-origin: 145.185px 116.174px;" id="el8gfphpttzea" class="animable"></path><path d="M135.36,120.19c4.19-.33,8.38-.35,12.57-.4s8.39.07,12.58.4c-4.19.34-8.38.36-12.58.41S139.55,120.53,135.36,120.19Z" style="fill: rgb(235, 235, 235); transform-origin: 147.935px 120.195px;" id="elao3unuohfug" class="animable"></path><path d="M135.36,124.21a80.61,80.61,0,0,1,16.24,0,82.62,82.62,0,0,1-16.24,0Z" style="fill: rgb(235, 235, 235); transform-origin: 143.48px 124.205px;" id="el4zt6ass6y67" class="animable"></path><path d="M135.36,128.22c4.34-.33,8.68-.35,13-.4s8.67.07,13,.4c-4.34.34-8.67.36-13,.41S139.7,128.56,135.36,128.22Z" style="fill: rgb(235, 235, 235); transform-origin: 148.36px 128.225px;" id="elrsv9xmovk6" class="animable"></path><path d="M135.36,132.24c4.34-.33,8.68-.35,13-.4s8.67.06,13,.4c-4.34.34-8.67.36-13,.4S139.7,132.57,135.36,132.24Z" style="fill: rgb(235, 235, 235); transform-origin: 148.36px 132.238px;" id="elv9fo4hs219l" class="animable"></path><rect x="339.47" y="133.59" width="33.58" height="39.79" style="fill: rgb(255, 255, 255); transform-origin: 356.26px 153.485px;" id="elyekmfzkqru" class="animable"></rect><path d="M357.42,137.07a1.16,1.16,0,1,1-1.16-1.15A1.15,1.15,0,0,1,357.42,137.07Z" style="fill: rgb(69, 90, 100); transform-origin: 356.26px 137.08px;" id="elxbfseozak99" class="animable"></path><path d="M344.85,144.44a25,25,0,0,1,7,0,25,25,0,0,1-7,0Z" style="fill: rgb(235, 235, 235); transform-origin: 348.35px 144.44px;" id="el1qh34x31k8di" class="animable"></path><path d="M344.85,147.28a40.12,40.12,0,0,1,9.12,0,41.71,41.71,0,0,1-9.12,0Z" style="fill: rgb(235, 235, 235); transform-origin: 349.41px 147.275px;" id="elq2tl67waku8" class="animable"></path><path d="M344.85,150.11a35.83,35.83,0,0,1,8.45,0,34.46,34.46,0,0,1-8.45,0Z" style="fill: rgb(235, 235, 235); transform-origin: 349.075px 150.115px;" id="elr95vfp0ompc" class="animable"></path><path d="M344.85,153a35.83,35.83,0,0,1,8.45,0,35.83,35.83,0,0,1-8.45,0Z" style="fill: rgb(235, 235, 235); transform-origin: 349.075px 153px;" id="elzcyi43ihxa" class="animable"></path><path d="M344.85,155.79a26,26,0,0,1,7.34,0,27.06,27.06,0,0,1-7.34,0Z" style="fill: rgb(235, 235, 235); transform-origin: 348.52px 155.785px;" id="elgyspve68j7u" class="animable"></path><path d="M344.85,158.62a44.3,44.3,0,0,1,9.4,0,42.61,42.61,0,0,1-9.4,0Z" style="fill: rgb(235, 235, 235); transform-origin: 349.55px 158.625px;" id="el2kpi10fyph5" class="animable"></path><path d="M344.85,161.46a30.23,30.23,0,0,1,7.76,0,30.23,30.23,0,0,1-7.76,0Z" style="fill: rgb(235, 235, 235); transform-origin: 348.73px 161.46px;" id="elvq9rlkm4vv" class="animable"></path><path d="M344.85,164.3a45.55,45.55,0,0,1,9.72,0,47.36,47.36,0,0,1-9.72,0Z" style="fill: rgb(235, 235, 235); transform-origin: 349.71px 164.295px;" id="elkybf354p2ir" class="animable"></path><path d="M344.85,167.13a47.36,47.36,0,0,1,9.72,0,45.55,45.55,0,0,1-9.72,0Z" style="fill: rgb(235, 235, 235); transform-origin: 349.71px 167.135px;" id="elxzpbfbtnkx" class="animable"></path><path d="M358.73,144.44a42.63,42.63,0,0,1,9.22,0,42.63,42.63,0,0,1-9.22,0Z" style="fill: rgb(235, 235, 235); transform-origin: 363.34px 144.44px;" id="el8woq88p4g7h" class="animable"></path><path d="M358.73,147.28a17.79,17.79,0,0,1,6.06,0,18.49,18.49,0,0,1-6.06,0Z" style="fill: rgb(235, 235, 235); transform-origin: 361.76px 147.275px;" id="elcrwnkp8tfhw" class="animable"></path><path d="M358.73,150.11a37.8,37.8,0,0,1,8.68,0,36.35,36.35,0,0,1-8.68,0Z" style="fill: rgb(235, 235, 235); transform-origin: 363.07px 150.115px;" id="el0cy97myq718" class="animable"></path><path d="M358.73,153a35.74,35.74,0,0,1,8.44,0,35.74,35.74,0,0,1-8.44,0Z" style="fill: rgb(235, 235, 235); transform-origin: 362.95px 153px;" id="elum4epdw39jc" class="animable"></path><path d="M358.73,155.79a41,41,0,0,1,9.22,0,42.63,42.63,0,0,1-9.22,0Z" style="fill: rgb(235, 235, 235); transform-origin: 363.34px 155.785px;" id="elrabkwnpyj1" class="animable"></path><path d="M358.73,158.62a27.06,27.06,0,0,1,7.34,0,26,26,0,0,1-7.34,0Z" style="fill: rgb(235, 235, 235); transform-origin: 362.4px 158.625px;" id="elvppo9pzs33" class="animable"></path><path d="M358.73,161.46a37.8,37.8,0,0,1,8.68,0,37.8,37.8,0,0,1-8.68,0Z" style="fill: rgb(235, 235, 235); transform-origin: 363.07px 161.46px;" id="el6mo6olj06vq" class="animable"></path><path d="M358.73,164.3a21.78,21.78,0,0,1,6.71,0,22.64,22.64,0,0,1-6.71,0Z" style="fill: rgb(235, 235, 235); transform-origin: 362.085px 164.295px;" id="elug26rdjbh5l" class="animable"></path><path d="M358.73,167.13a20.86,20.86,0,0,1,6.44,0,20.07,20.07,0,0,1-6.44,0Z" style="fill: rgb(235, 235, 235); transform-origin: 361.95px 167.135px;" id="elilxvynuics" class="animable"></path><rect x="162.31" y="121.25" width="25.8" height="25.8" style="fill: #6A96F0; transform-origin: 175.21px 134.15px;" id="elquzl93j0tke" class="animable"></rect><path d="M176.75,123.87a1.54,1.54,0,1,1-1.54-1.54A1.54,1.54,0,0,1,176.75,123.87Z" style="fill: rgb(69, 90, 100); transform-origin: 175.21px 123.87px;" id="eljtm0ne64rep" class="animable"></path><rect x="114.11" y="65.34" width="271.62" height="11.42" style="fill: rgb(219, 219, 219); transform-origin: 249.92px 71.05px;" id="elpbtkqp6l4ch" class="animable"></rect><polygon points="200.2 90.91 243.75 90.82 287.31 90.91 243.75 91 200.2 90.91" style="fill: rgb(199, 199, 199); transform-origin: 243.755px 90.91px;" id="elojx15xraag" class="animable"></polygon><polygon points="200.2 94.46 243.75 94.37 287.31 94.46 243.75 94.56 200.2 94.46" style="fill: rgb(199, 199, 199); transform-origin: 243.755px 94.465px;" id="elz2hw7esolj9" class="animable"></polygon><polygon points="200.2 98.02 243.75 97.92 287.31 98.02 243.75 98.11 200.2 98.02" style="fill: rgb(199, 199, 199); transform-origin: 243.755px 98.015px;" id="el4di8hlevyfb" class="animable"></polygon><polygon points="200.2 101.57 243.75 101.47 287.31 101.57 243.75 101.66 200.2 101.57" style="fill: rgb(199, 199, 199); transform-origin: 243.755px 101.565px;" id="elstgj47emyyn" class="animable"></polygon><polygon points="200.2 105.12 243.75 105.03 287.31 105.12 243.75 105.21 200.2 105.12" style="fill: rgb(199, 199, 199); transform-origin: 243.755px 105.12px;" id="eldwhybxrfu7l" class="animable"></polygon><polygon points="200.2 108.67 243.75 108.58 287.31 108.67 243.75 108.77 200.2 108.67" style="fill: rgb(199, 199, 199); transform-origin: 243.755px 108.675px;" id="elw41uah1bp8" class="animable"></polygon><polygon points="200.2 112.22 243.75 112.13 287.31 112.22 243.75 112.32 200.2 112.22" style="fill: rgb(199, 199, 199); transform-origin: 243.755px 112.225px;" id="elh75q1fj3t8" class="animable"></polygon><polygon points="200.2 115.78 243.75 115.68 287.31 115.78 243.75 115.87 200.2 115.78" style="fill: rgb(199, 199, 199); transform-origin: 243.755px 115.775px;" id="el911qi7he0q" class="animable"></polygon><polygon points="200.2 119.33 243.75 119.23 287.31 119.33 243.75 119.42 200.2 119.33" style="fill: rgb(199, 199, 199); transform-origin: 243.755px 119.325px;" id="elzuekrwjvgyr" class="animable"></polygon><polygon points="200.2 122.88 243.75 122.79 287.31 122.88 243.75 122.97 200.2 122.88" style="fill: rgb(199, 199, 199); transform-origin: 243.755px 122.88px;" id="eluk72vaye7no" class="animable"></polygon><polygon points="200.2 126.43 243.75 126.34 287.31 126.43 243.75 126.53 200.2 126.43" style="fill: rgb(199, 199, 199); transform-origin: 243.755px 126.435px;" id="elk6d3a0lazq" class="animable"></polygon><polygon points="200.2 129.99 243.75 129.89 287.31 129.99 243.75 130.08 200.2 129.99" style="fill: rgb(199, 199, 199); transform-origin: 243.755px 129.985px;" id="elymkdnzat0wf" class="animable"></polygon><polygon points="200.2 133.54 243.75 133.44 287.31 133.54 243.75 133.63 200.2 133.54" style="fill: rgb(199, 199, 199); transform-origin: 243.755px 133.535px;" id="elfj3bgix5277" class="animable"></polygon><polygon points="200.2 137.09 243.75 137 287.31 137.09 243.75 137.18 200.2 137.09" style="fill: rgb(199, 199, 199); transform-origin: 243.755px 137.09px;" id="el1izcvt070cd" class="animable"></polygon><polygon points="200.2 140.64 243.75 140.55 287.31 140.64 243.75 140.74 200.2 140.64" style="fill: rgb(199, 199, 199); transform-origin: 243.755px 140.645px;" id="el1fhyd3399ar" class="animable"></polygon><rect x="209.41" y="115.78" width="6.61" height="29.01" style="fill: #6A96F0; transform-origin: 212.715px 130.285px;" id="elinob3ysizs" class="animable"></rect><rect x="221.66" y="103.51" width="6.61" height="41.28" style="fill: rgb(255, 255, 255); transform-origin: 224.965px 124.15px;" id="elj2248ldj2i" class="animable"></rect><rect x="233.92" y="97.94" width="6.61" height="46.85" style="fill: #6A96F0; transform-origin: 237.225px 121.365px;" id="elbl81j3w8guf" class="animable"></rect><rect x="246.17" y="105.2" width="6.61" height="39.58" style="fill: rgb(255, 255, 255); transform-origin: 249.475px 124.99px;" id="el224bwxxt6w4" class="animable"></rect><rect x="258.43" y="107.36" width="6.61" height="37.42" style="fill: #6A96F0; transform-origin: 261.735px 126.07px;" id="elqs0vx3bpo1t" class="animable"></rect><rect x="270.68" y="128.57" width="6.61" height="16.22" style="fill: rgb(255, 255, 255); transform-origin: 273.985px 136.68px;" id="el8urx9vv2k97" class="animable"></rect><path d="M202.56,88.42l.15,14.09.1,14.09q.1,14.1.1,28.18l-.35-.34,21.19,0,21.18,0,21.19.12,21.19.2-21.19.21-21.19.12-21.18,0-21.19,0h-.35v-.35q0-14.09.1-28.18l.1-14.09Z" style="fill: rgb(199, 199, 199); transform-origin: 244.76px 116.755px;" id="elgqdmpfk3x1" class="animable"></path><rect x="209.41" y="147.76" width="6.61" height="0.6" style="fill: rgb(199, 199, 199); transform-origin: 212.715px 148.06px;" id="el9s68sj5pnp" class="animable"></rect><rect x="221.66" y="147.76" width="6.61" height="0.6" style="fill: rgb(199, 199, 199); transform-origin: 224.965px 148.06px;" id="el29xhl554t6r" class="animable"></rect><rect x="233.92" y="147.76" width="6.61" height="0.6" style="fill: rgb(199, 199, 199); transform-origin: 237.225px 148.06px;" id="el273yb2grygm" class="animable"></rect><rect x="246.17" y="147.76" width="6.61" height="0.6" style="fill: rgb(199, 199, 199); transform-origin: 249.475px 148.06px;" id="elvot1jr4uzj" class="animable"></rect><rect x="258.43" y="147.76" width="6.61" height="0.6" style="fill: rgb(199, 199, 199); transform-origin: 261.735px 148.06px;" id="el2fckoi7sido" class="animable"></rect><rect x="270.68" y="147.76" width="6.61" height="0.6" style="fill: rgb(199, 199, 199); transform-origin: 273.985px 148.06px;" id="el72a7ufuud1l" class="animable"></rect><rect x="138.54" y="222.29" width="26.23" height="2.25" style="fill: rgb(199, 199, 199); transform-origin: 151.655px 223.415px;" id="el6jqx0cx5czk" class="animable"></rect><rect x="138.54" y="226.99" width="35.44" height="2.25" style="fill: rgb(199, 199, 199); transform-origin: 156.26px 228.115px;" id="elnw7fj2kpw9" class="animable"></rect><rect x="138.54" y="231.7" width="18.81" height="2.25" style="fill: rgb(199, 199, 199); transform-origin: 147.945px 232.825px;" id="els0pfi6gg16" class="animable"></rect><rect x="127.22" y="222.29" width="5.47" height="5.47" style="fill: #6A96F0; transform-origin: 129.955px 225.025px;" id="el6ng2uv98xgn" class="animable"></rect><rect x="307.92" y="90.81" width="26.23" height="2.25" style="fill: rgb(199, 199, 199); transform-origin: 321.035px 91.935px;" id="el4e90wuxjnm" class="animable"></rect><rect x="307.92" y="95.51" width="35.44" height="2.25" style="fill: rgb(199, 199, 199); transform-origin: 325.64px 96.635px;" id="elqh7vuujipr" class="animable"></rect><rect x="307.92" y="100.22" width="18.81" height="2.25" style="fill: rgb(199, 199, 199); transform-origin: 317.325px 101.345px;" id="ely051833z9qm" class="animable"></rect><rect x="296.6" y="90.81" width="5.47" height="5.47" style="fill: #6A96F0; transform-origin: 299.335px 93.545px;" id="elny3gj4qf57" class="animable"></rect><rect x="307.92" y="109.02" width="31.18" height="2.25" style="fill: rgb(199, 199, 199); transform-origin: 323.51px 110.145px;" id="elsgg66huvx4m" class="animable"></rect><rect x="307.92" y="113.72" width="24.66" height="2.25" style="fill: rgb(199, 199, 199); transform-origin: 320.25px 114.845px;" id="elvgo1loxsv" class="animable"></rect><rect x="307.92" y="118.43" width="35.44" height="2.25" style="fill: rgb(199, 199, 199); transform-origin: 325.64px 119.555px;" id="el0ccqh5840tkn" class="animable"></rect><rect x="296.6" y="109.02" width="5.47" height="5.47" style="fill: rgb(255, 255, 255); transform-origin: 299.335px 111.755px;" id="el2hi2sclz9gh" class="animable"></rect><rect x="127.2" y="164.51" width="117.56" height="51.42" style="fill: rgb(219, 219, 219); transform-origin: 185.98px 190.22px;" id="el6g75gjww8a9" class="animable"></rect><rect x="133.45" y="171" width="105.07" height="4.44" style="fill: rgb(255, 255, 255); transform-origin: 185.985px 173.22px;" id="elvuyzxp2jsbo" class="animable"></rect><rect x="133.45" y="171" width="53.72" height="4.44" style="fill: #6A96F0; transform-origin: 160.31px 173.22px;" id="elcb07vgnaba6" class="animable"></rect><rect x="133.45" y="179.5" width="105.07" height="4.44" style="fill: rgb(255, 255, 255); transform-origin: 185.985px 181.72px;" id="elvfmsf8ovzl" class="animable"></rect><rect x="133.45" y="179.5" width="96.38" height="4.44" style="fill: #6A96F0; transform-origin: 181.64px 181.72px;" id="elo75w16hyub" class="animable"></rect><rect x="133.45" y="188" width="105.07" height="4.44" style="fill: rgb(255, 255, 255); transform-origin: 185.985px 190.22px;" id="elm9zs4hbs6d" class="animable"></rect><rect x="133.45" y="188" width="31.09" height="4.44" style="fill: #6A96F0; transform-origin: 148.995px 190.22px;" id="elzbrq9xpjlrf" class="animable"></rect><rect x="133.45" y="196.5" width="105.07" height="4.44" style="fill: rgb(255, 255, 255); transform-origin: 185.985px 198.72px;" id="elhks063mnpde" class="animable"></rect><rect x="133.45" y="196.5" width="82.57" height="4.44" style="fill: #6A96F0; transform-origin: 174.735px 198.72px;" id="elxowr85drwt" class="animable"></rect><rect x="133.45" y="205" width="105.07" height="4.44" style="fill: rgb(255, 255, 255); transform-origin: 185.985px 207.22px;" id="elov4n9hglnj" class="animable"></rect><rect x="133.45" y="205" width="60.71" height="4.44" style="fill: #6A96F0; transform-origin: 163.805px 207.22px;" id="elf7mtqd7fxb5" class="animable"></rect><path d="M320.94,192.53a30,30,0,0,1-4.58,13.84l-7.7-4.45a21.51,21.51,0,0,0,3.36-9.39Z" style="fill: rgb(69, 90, 100); transform-origin: 314.8px 199.45px;" id="el0zdsw31t7sd" class="animable"></path><path d="M321,190.21c0,.33,0,.65,0,1h-8.9c0-.32,0-.64,0-1a21.38,21.38,0,0,0-9.65-17.89l4.46-7.71A30.31,30.31,0,0,1,321,190.21Z" style="fill: rgb(166, 166, 166); transform-origin: 311.725px 177.91px;" id="el86g2gp506gg" class="animable"></path><path d="M305.79,163.91l-4.44,7.71a21.28,21.28,0,0,0-10-2.81v-8.89A30.11,30.11,0,0,1,305.79,163.91Z" style="fill: rgb(69, 90, 100); transform-origin: 298.57px 165.77px;" id="eluktc9shy86" class="animable"></path><path d="M290.05,159.92v8.89a21.38,21.38,0,0,0-17.78,10.55l-7.71-4.44A30.27,30.27,0,0,1,290.05,159.92Z" style="fill: #6A96F0; transform-origin: 277.305px 169.64px;" id="elo086bmoauqo" class="animable"></path><path d="M271.62,180.54a21.09,21.09,0,0,0-2.3,9.3h-8.89a29.88,29.88,0,0,1,3.48-13.75Z" style="fill: rgb(166, 166, 166); transform-origin: 266.025px 182.965px;" id="el0w2lkm7v4wjb" class="animable"></path><path d="M278.79,208l-4.45,7.71a30.22,30.22,0,0,1-13.9-24.53h8.89A21.38,21.38,0,0,0,278.79,208Z" style="fill: rgb(69, 90, 100); transform-origin: 269.615px 203.445px;" id="elm4zrfcuaxl" class="animable"></path><path d="M315.61,207.49a30.3,30.3,0,0,1-40.13,8.92l4.45-7.7a21.41,21.41,0,0,0,28-5.69Z" style="fill: rgb(219, 219, 219); transform-origin: 295.545px 211.769px;" id="elv3f6y1ph0q" class="animable"></path><path d="M306.57,191.18A14.06,14.06,0,0,1,298,204.11l-5.49-12.93Z" style="fill: #6A96F0; transform-origin: 299.54px 197.645px;" id="elzc14wsjh74q" class="animable"></path><path d="M290.73,190.22l5.48,12.93h0c-.43.17-.86.34-1.29.47a14.1,14.1,0,0,1-4.17.63,14.26,14.26,0,0,1-4.17-.63,14,14,0,0,1,0-26.81,14.12,14.12,0,0,1,8.34,0,14,14,0,0,1,9.24,9.23,14.36,14.36,0,0,1,.63,4.17Z" style="fill: #6A96F0; transform-origin: 290.704px 190.215px;" id="elhiww3firg4" class="animable"></path><path d="M290.73,190.22l5.48,12.93h0c-.43.17-.86.34-1.29.47a14.1,14.1,0,0,1-4.17.63,14,14,0,0,1-13.4-9.87,13.91,13.91,0,0,1,0-8.34,14,14,0,0,1,13.4-9.86,14,14,0,0,1,14,14Z" style="fill: rgb(219, 219, 219); transform-origin: 290.73px 190.215px;" id="eljw09ezsnsh" class="animable"></path><path d="M290.73,190.22l-9.15,10.64a14,14,0,1,1,23.19-10.64Z" style="fill: rgb(166, 166, 166); transform-origin: 290.77px 188.579px;" id="elbh2zxvecgr" class="animable"></path><polygon points="330.94 223.7 311.37 223.7 287.13 199.46 287.49 199.11 311.58 223.2 330.94 223.2 330.94 223.7" style="fill: rgb(38, 50, 56); transform-origin: 309.035px 211.405px;" id="elinaawnphitr" class="animable"></polygon><rect x="285.95" y="197.92" width="2.73" height="2.73" style="fill: rgb(38, 50, 56); transform-origin: 287.315px 199.285px;" id="ellk0o6rsk0if" class="animable"></rect><polygon points="330.94 204.95 308.89 204.95 298.42 194.48 298.77 194.12 309.09 204.45 330.94 204.45 330.94 204.95" style="fill: rgb(38, 50, 56); transform-origin: 314.68px 199.535px;" id="elnhpi542q3mq" class="animable"></polygon><rect x="297.23" y="192.94" width="2.72" height="2.73" style="fill: rgb(38, 50, 56); transform-origin: 298.59px 194.305px;" id="eljj2quilai9j" class="animable"></rect><rect x="297.59" y="186.39" width="33.35" height="0.5" style="fill: rgb(38, 50, 56); transform-origin: 314.265px 186.64px;" id="el78pgpgjboj7" class="animable"></rect><rect x="295.87" y="185.28" width="2.73" height="2.73" style="fill: rgb(38, 50, 56); transform-origin: 297.235px 186.645px;" id="elz027io4gmch" class="animable"></rect><rect x="339.53" y="183.91" width="26.23" height="2.25" style="fill: rgb(219, 219, 219); transform-origin: 352.645px 185.035px;" id="elp5ust5cyrcg" class="animable"></rect><rect x="339.53" y="188.61" width="35.44" height="2.25" style="fill: rgb(219, 219, 219); transform-origin: 357.25px 189.735px;" id="eltoj30qg4xk" class="animable"></rect><rect x="339.53" y="193.32" width="18.81" height="2.25" style="fill: rgb(219, 219, 219); transform-origin: 348.935px 194.445px;" id="elcwqp66asial" class="animable"></rect><rect x="328.21" y="183.91" width="5.47" height="5.47" style="fill: #6A96F0; transform-origin: 330.945px 186.645px;" id="elfowwqcc6mfi" class="animable"></rect><rect x="339.53" y="202.12" width="31.18" height="2.25" style="fill: rgb(219, 219, 219); transform-origin: 355.12px 203.245px;" id="ely3f741zrx3" class="animable"></rect><rect x="339.53" y="206.82" width="24.66" height="2.25" style="fill: rgb(219, 219, 219); transform-origin: 351.86px 207.945px;" id="elv8puhgquxn" class="animable"></rect><rect x="339.53" y="211.53" width="35.44" height="2.25" style="fill: rgb(219, 219, 219); transform-origin: 357.25px 212.655px;" id="els90aro51bg" class="animable"></rect><rect x="328.21" y="202.12" width="5.47" height="5.47" style="fill: rgb(166, 166, 166); transform-origin: 330.945px 204.855px;" id="elvkcrfmzv4kn" class="animable"></rect><rect x="339.53" y="220.33" width="31.18" height="2.25" style="fill: rgb(219, 219, 219); transform-origin: 355.12px 221.455px;" id="elnkkcvtph4df" class="animable"></rect><rect x="339.53" y="225.03" width="24.66" height="2.25" style="fill: rgb(219, 219, 219); transform-origin: 351.86px 226.155px;" id="elma6cc0hvsln" class="animable"></rect><rect x="339.53" y="229.74" width="35.44" height="2.25" style="fill: rgb(219, 219, 219); transform-origin: 357.25px 230.865px;" id="els0p98vw3arc" class="animable"></rect><rect x="328.21" y="220.33" width="5.47" height="5.47" style="fill: rgb(199, 199, 199); transform-origin: 330.945px 223.065px;" id="elc4cl8izd9" class="animable"></rect></g><g id="freepik--Chair--inject-136" class="animable" style="transform-origin: 224.965px 342.355px;"><polygon points="255.92 338.62 257.86 350.29 271.05 421.48 273.17 421.48 263.58 350.29 262.17 338.62 255.92 338.62" style="fill: rgb(219, 219, 219); transform-origin: 264.545px 380.05px;" id="el4hccy9ea54k" class="animable"></polygon><polygon points="262.17 338.62 255.92 338.62 257.86 350.29 263.58 350.29 262.17 338.62" style="fill: rgb(166, 166, 166); transform-origin: 259.75px 344.455px;" id="el8e0o5pf7b3f" class="animable"></polygon><polygon points="214.52 421.48 216.65 421.48 229.83 350.29 231.78 338.62 225.53 338.62 224.11 350.29 214.52 421.48" style="fill: rgb(219, 219, 219); transform-origin: 223.15px 380.05px;" id="elrhw7c6bwpl" class="animable"></polygon><polygon points="225.53 338.62 224.11 350.29 229.83 350.29 231.78 338.62 225.53 338.62" style="fill: rgb(166, 166, 166); transform-origin: 227.945px 344.455px;" id="elpte4kxpoonl" class="animable"></polygon><polygon points="174.99 421.48 177.11 421.48 190.29 350.29 192.24 338.62 185.99 338.62 184.57 350.29 174.99 421.48" style="fill: rgb(219, 219, 219); transform-origin: 183.615px 380.05px;" id="elq9fxqppb4f" class="animable"></polygon><polygon points="184.57 350.29 190.29 350.29 192.24 338.62 185.99 338.62 184.57 350.29" style="fill: rgb(166, 166, 166); transform-origin: 188.405px 344.455px;" id="eldm9i49d9nif" class="animable"></polygon><polygon points="178.35 344.11 274.94 344.11 274.94 333.93 238.79 333.93 226.63 263.23 182.04 263.23 178.35 344.11" style="fill: rgb(219, 219, 219); transform-origin: 226.645px 303.67px;" id="elh7z3yl5bboq" class="animable"></polygon><polygon points="178.35 344.11 183.62 344.11 187.05 263.23 182.04 263.23 178.35 344.11" style="fill: rgb(166, 166, 166); transform-origin: 182.7px 303.67px;" id="elhxs91h31wo" class="animable"></polygon></g><g id="freepik--character-2--inject-136" class="animable" style="transform-origin: 392.187px 275.764px;"><path d="M435.25,362.44s-.29,34.38-.29,34.4c0,6.58-.16,12.35-.51,15.32a0,0,0,0,1,0,0,4.63,4.63,0,0,1-.49,2l0,0c-2,1.32-54.52,2.68-56.37,2.11s-.37-5.88,1.63-7.56,21.89-11.2,21.89-11.2l.62-34.37Z" style="fill: rgb(173, 99, 89); transform-origin: 405.997px 389.422px;" id="eln86t08z777c" class="animable"></path><path d="M435,389.79s-.06,7-.06,7c0,6.58-.16,12.35-.51,15.32a0,0,0,0,1,0,0,9.43,9.43,0,0,1-.49,2l0,0c-2,1.32-54.52,2.68-56.37,2.11s-.37-5.88,1.63-7.56,21.89-11.2,21.89-11.2l0-7.17Z" style="fill: rgb(255, 255, 255); transform-origin: 405.862px 403.072px;" id="elwijxh9je14n" class="animable"></path><path d="M397.85,397.65c3.5-.58,7.75.05,10.37,2.59.1.1,0,.24-.16.2a48.72,48.72,0,0,0-10.2-2.35A.22.22,0,0,1,397.85,397.65Z" style="fill: rgb(38, 50, 56); transform-origin: 402.947px 398.949px;" id="el8c5gfnma3mr" class="animable"></path><path d="M395.3,399.11c3.5-.58,7.76.05,10.37,2.59.1.1,0,.24-.16.2a49.36,49.36,0,0,0-10.2-2.35A.22.22,0,0,1,395.3,399.11Z" style="fill: rgb(38, 50, 56); transform-origin: 400.399px 400.409px;" id="elzzi7wlzebqe" class="animable"></path><path d="M392.75,400.57c3.5-.57,7.76.05,10.37,2.59.1.1,0,.24-.15.21A49,49,0,0,0,392.76,401,.22.22,0,0,1,392.75,400.57Z" style="fill: rgb(38, 50, 56); transform-origin: 397.871px 401.874px;" id="elbx9se3pd8hk" class="animable"></path><path d="M377.55,416.4c1.85.57,54.4-.8,56.37-2.12.76-.49,1-8.16,1-17.43v-.3l-33.92.51,0,.57s-19.88,9.52-21.89,11.2S375.7,415.83,377.55,416.4Z" style="fill: rgb(55, 71, 79); transform-origin: 405.803px 406.541px;" id="eltabi84259sh" class="animable"></path><path d="M435,396.55v.3c0,9.27-.28,16.94-1,17.43s-12.28,1.21-24.59,1.65c-14.73.52-30.77.78-31.78.47-1.85-.57-.36-5.89,1.63-7.57s21.89-11.2,21.89-11.2l0-.57,11.31-.17Z" style="fill: rgb(55, 71, 79); transform-origin: 405.893px 406.542px;" id="elu4ap7nk96n" class="animable"></path><path d="M378.09,414.34c8.86-.45,44.61-1.41,53.39-1.18.07,0,.07,0,0,0-8.76.64-44.52,1.32-53.38,1.28C377.91,414.49,377.91,414.35,378.09,414.34Z" style="fill: rgb(38, 50, 56); transform-origin: 404.744px 413.788px;" id="el20lq4sefxke" class="animable"></path><path d="M412.35,396.89c-.83,5.68-2.09,14.05-3,19-14.73.52-30.77.78-31.78.47-1.85-.57-.36-5.89,1.63-7.57s21.89-11.2,21.89-11.2l0-.57Z" style="fill: rgb(38, 50, 56); transform-origin: 394.538px 406.692px;" id="elg3ci6j08g65" class="animable"></path><path d="M439.41,397l-39.62.36s-10.57-140.18-1.17-176.9h28.43s7.64,15.59,3.27,33.14Z" style="fill: rgb(69, 90, 100); transform-origin: 417.068px 308.91px;" id="elxoolxgihix" class="animable"></path><path d="M436.67,390.38a29.76,29.76,0,0,0-3.13-.24c-1.16-.08-2.32-.16-3.49-.21-2.23-.09-4.47-.13-6.71-.14-4.51,0-9,0-13.54.15-2.57.08-5.14.18-7.7.32a.08.08,0,0,0,0,.16c4.48.16,9,.22,13.43.31s9,.17,13.43.08c1.28,0,2.56,0,3.85-.1s2.59,0,3.84-.18C436.73,390.52,436.76,390.4,436.67,390.38Z" style="fill: rgb(38, 50, 56); transform-origin: 419.373px 390.32px;" id="elgmiwnyg509w" class="animable"></path><path d="M402.73,356.2c-.45-10.24-.77-20.48-1.06-30.73q-.84-30.72-.44-61.48c.15-11.5.45-23,.8-34.49,0-.13-.2-.12-.21,0-1.09,20.57-1.5,41.19-1.52,61.8s.4,41,1.41,61.47c.57,11.49,1.27,23,2.35,34.44,0,.1.16.1.16,0C403.76,376.88,403.17,366.54,402.73,356.2Z" style="fill: rgb(38, 50, 56); transform-origin: 402.26px 308.346px;" id="el7xjbwjhkr4k" class="animable"></path><path d="M403.51,366.9s-.29,34.38-.29,34.41c0,6.57-.16,12.34-.51,15.31a0,0,0,0,1,0,.05,4.63,4.63,0,0,1-.49,2l0,0c-2,1.32-54.52,2.68-56.37,2.12s-.37-5.89,1.63-7.57,21.89-11.2,21.89-11.2l.62-34.37Z" style="fill: rgb(173, 99, 89); transform-origin: 374.257px 393.91px;" id="el3zmd76f7fbz" class="animable"></path><path d="M403.28,394.25s-.06,7-.06,7.06c0,6.57-.16,12.34-.51,15.31a0,0,0,0,1,0,.05,9.43,9.43,0,0,1-.49,2l0,0c-2,1.32-54.52,2.68-56.37,2.12s-.37-5.89,1.63-7.57,21.89-11.2,21.89-11.2l0-7.17Z" style="fill: rgb(255, 255, 255); transform-origin: 374.142px 407.585px;" id="elfoqiy8j23cw" class="animable"></path><path d="M366.11,402.11c3.5-.58,7.76.05,10.37,2.59.1.1,0,.24-.16.2a48.72,48.72,0,0,0-10.2-2.35A.22.22,0,0,1,366.11,402.11Z" style="fill: rgb(38, 50, 56); transform-origin: 371.207px 403.409px;" id="elehpwmmrwnob" class="animable"></path><path d="M363.56,403.57c3.5-.57,7.76.05,10.37,2.59.1.1,0,.24-.15.2A49.6,49.6,0,0,0,363.57,404,.22.22,0,0,1,363.56,403.57Z" style="fill: rgb(38, 50, 56); transform-origin: 368.681px 404.871px;" id="elneujco4xkr" class="animable"></path><path d="M361,405c3.5-.57,7.75.05,10.36,2.59.1.1,0,.25-.15.21A49,49,0,0,0,361,405.48.23.23,0,0,1,361,405Z" style="fill: rgb(38, 50, 56); transform-origin: 366.08px 406.305px;" id="elizhzcfymjz" class="animable"></path><path d="M345.81,420.86c1.85.57,54.4-.8,56.37-2.12.76-.49,1-8.16,1-17.43V401l-33.92.5,0,.57s-19.88,9.52-21.89,11.2S344,420.29,345.81,420.86Z" style="fill: rgb(55, 71, 79); transform-origin: 374.072px 410.996px;" id="el8qg82dixjdf" class="animable"></path><path d="M346.35,418.8c8.86-.44,44.61-1.41,53.39-1.18.07,0,.07.05,0,.05-8.76.64-44.52,1.32-53.38,1.28C346.17,419,346.17,418.81,346.35,418.8Z" style="fill: rgb(38, 50, 56); transform-origin: 373.004px 418.272px;" id="el8n0wqkcpg6" class="animable"></path><path d="M409.73,256.9s-2.79,56.86-2.89,58.21c0,.52-1.3,88.26-1.3,88.26l-39.61.36s5.42-82.25,6-90.28c.07-.93,2.31-56.23,11.71-92.95h42.58s-.37,19.23-9.11,33.14A71.47,71.47,0,0,0,409.73,256.9Z" style="fill: rgb(69, 90, 100); transform-origin: 396.075px 312.115px;" id="el7luucgb3qmu" class="animable"></path><path d="M406.65,258c2.1-1.14,4.24-2.17,6.44-3.11s4.44-1.79,6.63-2.76c.08,0,.15.08.07.12-2.15,1.11-4.26,2.3-6.44,3.35a52.19,52.19,0,0,1-6.6,2.64A.13.13,0,0,1,406.65,258Z" style="fill: rgb(38, 50, 56); transform-origin: 413.198px 255.19px;" id="elrcik1uhdqf" class="animable"></path><path d="M409.57,256.84c0-.08.14-.06.13,0-1.43,10.66-3.36,137.35-3.69,140.38a.18.18,0,0,1-.36,0C405.58,391.86,405.83,292.29,409.57,256.84Z" style="fill: rgb(38, 50, 56); transform-origin: 407.671px 327.094px;" id="elyfp1nd1jonr" class="animable"></path><path d="M390,224.53c-1.09,5.48-1.85,11-2.67,16.56s-1.61,11.08-2.35,16.63q-2.19,16.38-3.9,32.81-3.44,33.25-5,66.66-.89,18.78-1.08,37.6c0,.1.16.09.16,0,.76-22.28,1.84-44.55,3.53-66.78s3.91-44.34,6.62-66.42q1.13-9.18,2.36-18.34c.85-6.22,1.85-12.42,2.57-18.66C390.21,224.44,390,224.38,390,224.53Z" style="fill: rgb(38, 50, 56); transform-origin: 382.62px 309.652px;" id="eldxzeoeobcku" class="animable"></path><path d="M403.39,397.9a29.56,29.56,0,0,0-3.13-.25c-1.16-.08-2.32-.16-3.48-.21-2.24-.09-4.47-.13-6.71-.13-4.52,0-9,0-13.55.15-2.56.08-5.13.18-7.7.32-.1,0-.09.15,0,.15,4.47.16,8.95.23,13.43.31s8.95.17,13.42.09c1.29,0,2.57,0,3.85-.11s2.6,0,3.85-.18C403.45,398,403.48,397.91,403.39,397.9Z" style="fill: rgb(38, 50, 56); transform-origin: 386.097px 397.836px;" id="el5s5pf4oyx3" class="animable"></path><path d="M373.85,210.61c4.15-2.09,20.35-9.68,21-10.85s6.89-23.77,8.56-27.94,6.62-1.87,6.59,4.71.42,29.36-.53,33-18.72,18-22,21.08C385,233.06,371.53,211.77,373.85,210.61Z" style="fill: rgb(173, 99, 89); transform-origin: 391.832px 200.265px;" id="el301w7uouqnf" class="animable"></path><path d="M390.78,227.56a73.32,73.32,0,0,1-7.24,6.34c-2.07,1.46-8.16,5.49-10,3.36-1.25-1.45,2-4.23,4.33-6.26,1.21-1.06,2.44-3.13,1.71-3.89-1.26-1.33-4.34,1.49-6.24,3.69-3.69,4.25-8.17,11.15-11.78,9.78-1.36-.52-.68-2.55.58-4.74-2.3,2.84-4.9,5.41-6.44,4.89a1.63,1.63,0,0,1-1.06-2,2.17,2.17,0,0,1-2.38.42c-1.29-.67-1.33-2.3-.81-4.17a1.19,1.19,0,0,1-1.06-.27c-3.06-2.38,4-14.66,7.22-16.68a81.94,81.94,0,0,1,20.65-8.79C383.42,211.11,390.79,227.55,390.78,227.56Z" style="fill: rgb(173, 99, 89); transform-origin: 370.209px 225.019px;" id="elkwrz35l0gg" class="animable"></path><path d="M372.41,223.15a17.75,17.75,0,0,0-5.94,5c-1.84,2.47-3,5.36-4.55,8,0,.07.08.14.11.06.72-1.31,1.57-2.57,2.33-3.86s1.46-2.55,2.29-3.75a17.6,17.6,0,0,1,5.79-5.37S372.44,223.14,372.41,223.15Z" style="fill: rgb(38, 50, 56); transform-origin: 367.18px 229.697px;" id="el39mto06sb1s" class="animable"></path><path d="M369,219.45a42.93,42.93,0,0,0-7,5.49c-2.27,2.33-3.63,5.34-5,8.25q-1.23,2.63-2.33,5.3c0,.08.07.14.11.06,1.37-3,2.82-6,4.36-8.85a23.26,23.26,0,0,1,5.7-7.07c1.35-1.11,2.77-2.13,4.2-3.13C369.06,219.48,369,219.43,369,219.45Z" style="fill: rgb(38, 50, 56); transform-origin: 361.857px 229.017px;" id="elrtziabruv8" class="animable"></path><path d="M364.83,216.63a22.49,22.49,0,0,0-6.41,4.87,39.88,39.88,0,0,0-5,8.53c-.73,1.62-1.4,3.26-2.05,4.92,0,.06.09.11.12,0a91.75,91.75,0,0,1,5.29-10.65,18.48,18.48,0,0,1,3.47-4.44,34.26,34.26,0,0,1,4.58-3.26S364.84,216.62,364.83,216.63Z" style="fill: rgb(38, 50, 56); transform-origin: 358.102px 225.808px;" id="elqvk3e5dzmqr" class="animable"></path><path d="M376.66,207.05l20.11,20.23s12.18-11.77,13.49-17.71,1.35-28.79,0-35.67-5.79-9.14-8.77.34-6.6,24.33-6.88,24.88S376.66,207.05,376.66,207.05Z" style="fill: #6A96F0; transform-origin: 393.959px 197.597px;" id="elhkglhocyusm" class="animable"></path><path d="M400.27,221a54.83,54.83,0,0,0-4-4.08c-1.36-1.34-2.76-2.62-4.17-3.91-2.82-2.57-5.72-5.07-8.69-7.47-.09-.08-.23,0-.14.13,2.67,2.77,5.44,5.47,8.26,8.08,1.4,1.29,2.81,2.57,4.26,3.81a53.25,53.25,0,0,0,4.36,3.59C400.25,221.18,400.34,221.05,400.27,221Z" style="fill: rgb(38, 50, 56); transform-origin: 391.768px 213.331px;" id="elf7bq6g166jn" class="animable"></path><path d="M397.89,178.09c2.3.18,7.22-4,9.2-7.52a59.44,59.44,0,0,0-.5-6c-.17-1.92-.31-4.06-.29-6,0-.41-1.38.32-1.38.32l-2.54.6-8.42,2a31.14,31.14,0,0,1,1.13,7.55,5,5,0,0,1-.09.8s0,.08,0,.14C394.72,171.46,394.3,177.81,397.89,178.09Z" style="fill: rgb(173, 99, 89); transform-origin: 400.525px 168.27px;" id="elrd2n9vhsras" class="animable"></path><path d="M395,169.8s0,.08,0,.14a8.46,8.46,0,0,0,1.27.07c8.29-.12,9.41-10.66,9.41-10.66l-3.28.12-8.42,2a31.14,31.14,0,0,1,1.13,7.55A5,5,0,0,1,395,169.8Z" style="fill: rgb(38, 50, 56); transform-origin: 399.83px 164.681px;" id="elhlq6i36dabw" class="animable"></path><path d="M403.23,165.5h0" style="fill: none; stroke: rgb(243, 165, 156); stroke-linecap: round; stroke-linejoin: round; stroke-width: 0px; transform-origin: 403.23px 165.5px;" id="el75fleokusd" class="animable"></path><path d="M406.64,141.9c1.82,4.19,1,17-1.81,20.14-4,4.56-11.29,5.78-15.35.79-3.93-4.83-2.51-21.49.65-24.42C394.78,134.09,404,135.71,406.64,141.9Z" style="fill: rgb(173, 99, 89); transform-origin: 397.35px 151.019px;" id="elhtbg2kax2ak" class="animable"></path><path d="M387.61,145.41s-1,4.8-2,9.57l1.62-.21-.37,2.16a4.24,4.24,0,0,0,3.39-.68Z" style="fill: rgb(173, 99, 89); transform-origin: 387.93px 151.222px;" id="el7y0sks1zw9t" class="animable"></path><path d="M389.35,150.62s.07,0,.06.08c-.12.86-.11,1.86.64,2.23,0,0,0,0,0,0C389.1,152.74,389.1,151.41,389.35,150.62Z" style="fill: rgb(38, 50, 56); transform-origin: 389.63px 151.775px;" id="elzjmutnyfee" class="animable"></path><path d="M390.22,149.8c1.39,0,1.2,2.83-.09,2.79S389.05,149.77,390.22,149.8Z" style="fill: rgb(38, 50, 56); transform-origin: 390.216px 151.195px;" id="el9cgcb58n2q5" class="animable"></path><path d="M391.4,148.8c-.37-.12-.7-.3-1-.45a1.89,1.89,0,0,1-1-.67.58.58,0,0,1,.15-.7,1.45,1.45,0,0,1,1.48-.06,2.15,2.15,0,0,1,1.17,1A.63.63,0,0,1,391.4,148.8Z" style="fill: rgb(38, 50, 56); transform-origin: 390.809px 147.798px;" id="elgzr8z6sxkjw" class="animable"></path><path d="M390.13,158.73c-.22.19-.45.45-.76.46a2.46,2.46,0,0,1-.92-.28,0,0,0,0,0,0,0,1.15,1.15,0,0,0,1.07.54.92.92,0,0,0,.73-.71A0,0,0,0,0,390.13,158.73Z" style="fill: rgb(38, 50, 56); transform-origin: 389.35px 159.092px;" id="el11fsz28jyfwe" class="animable"></path><path d="M390.49,156.09a3.07,3.07,0,0,1-3,1c-.06,0-.09-.08-.07-.08a5.31,5.31,0,0,0,3-1C390.52,156,390.55,156,390.49,156.09Z" style="fill: rgb(38, 50, 56); transform-origin: 388.967px 156.585px;" id="elhh4keyqyv04" class="animable"></path><path d="M388.57,141.31c-2.9-.87-4.92-7.27-3.91-9.64s3.39,1.37,3.39,1.37.24-2.24,1.26-2.49,2.92,2.83,2.92,2.83,9.74.62,11.82,1.37,2.71,3.55,2.71,3.55a6.5,6.5,0,0,1,3.61,4.14c1,3.24-2.22,15.41-4.23,17.06s-7.58-7.61-7.58-7.61-1.5.2-2.12-2.8c-.91-4.45-1.16-7.28-3.37-7.73A22.46,22.46,0,0,0,388.57,141.31Z" style="fill: rgb(38, 50, 56); transform-origin: 397.477px 145.116px;" id="el5q28veu72bb" class="animable"></path><path d="M398.1,152.42s2.46-4.32,4.4-3.48.35,6.92-1.74,7.93a2.21,2.21,0,0,1-3.06-.9Z" style="fill: rgb(173, 99, 89); transform-origin: 400.539px 152.997px;" id="eljzmwa79958e" class="animable"></path><path d="M402,150.67s.05,0,0,.06a5.57,5.57,0,0,0-2.55,3.75,1.22,1.22,0,0,1,1.79-.51s0,.09,0,.09a1.34,1.34,0,0,0-1.44.61,6.14,6.14,0,0,0-.6,1.27c-.06.15-.31.1-.28-.07v0C398.69,153.91,399.94,151.06,402,150.67Z" style="fill: rgb(38, 50, 56); transform-origin: 400.458px 153.35px;" id="el8184aky9r1p" class="animable"></path><path d="M397.35,182.3c-7.66,14.74-21.21,31.3-34.42,37.48-8.05,3.75-14,1.73-16.39-1.26-3.47-4.29,3.29-31.86,8.5-40.17,1.7-2.69,26.88,4.37,25.19,7.32s6-5.88,14.31-12.51C403.07,166.31,402,173.4,397.35,182.3Z" style="fill: rgb(173, 99, 89); transform-origin: 373.249px 196.119px;" id="elqmc38g7r3cn" class="animable"></path><path d="M363.1,163.65c3-2.24,6.33-5.06,10.13-6.15s8.47,2.94,8.91,4.36,1.75,10.79-2,11.95-3.6-6.39-4-7.13-.84-1.7-1.53-1.41-11.36,10-11.36,10Z" style="fill: rgb(173, 99, 89); transform-origin: 372.911px 166.293px;" id="elxlazcwzlqm" class="animable"></path><path d="M363.5,164.1c.21-.06,9.11-7.17,12.92-8.26s8.47,2.94,8.91,4.37,1.75,10.78-2,11.94-3.6-6.39-4-7.13-.83-1.7-1.52-1.4-11.36,10-11.36,10Z" style="fill: rgb(173, 99, 89); transform-origin: 374.706px 164.638px;" id="eleeg3gy9vl1p" class="animable"></path><path d="M381.87,172.07a4.75,4.75,0,0,1-1.32-2,8.06,8.06,0,0,1-.6-2.46,13.66,13.66,0,0,0-.18-2.22,4.43,4.43,0,0,0-1.14-1.84c-.46-.44-1-.09-1.38.23a17.48,17.48,0,0,0-1.77,1.56l-1.82,1.76a20.16,20.16,0,0,0-1.82,1.88c0,.05,0,.13.08.09a20.61,20.61,0,0,0,1.65-1.45q.92-.84,1.86-1.65c.58-.51,1.14-1.05,1.73-1.55.21-.18.61-.58.91-.61s.67.65.8.86a3.67,3.67,0,0,1,.5,2.08,10.72,10.72,0,0,0,.24,2.19,5.93,5.93,0,0,0,.76,1.92,8.51,8.51,0,0,0,1.4,1.35C381.84,172.24,381.94,172.12,381.87,172.07Z" style="fill: rgb(38, 50, 56); transform-origin: 376.867px 167.779px;" id="el9wk7cv30cau" class="animable"></path><path d="M354.92,178.64s4.51-10.89,8.78-16.26c3.77-4.76,8.62-8.56,12.7-9.86s14.2,9.3,10.84,11c-3.54,1.76-8.26-3.64-9.72-2.3-1.63,1.5-3.54,4-2.77,6.1s4,5.34,7.45,4.16,3.09-5.88,6.15-7.44,3.85,3.89,2.62,8a22.59,22.59,0,0,1-7.2,10.3c-2.69,2.07-10.87,9-10.87,9Z" style="fill: rgb(173, 99, 89); transform-origin: 373.222px 171.875px;" id="eljcv75ub3rd" class="animable"></path><path d="M385.91,163.86a7.45,7.45,0,0,1-3.83-.89,30.69,30.69,0,0,0-3.5-1.66.83.83,0,0,0-.72.07,4.38,4.38,0,0,0-.68.58,11.41,11.41,0,0,0-1.2,1.48c-.68,1-1.34,2.27-1,3.36a6.81,6.81,0,0,0,2,3.06,5.92,5.92,0,0,0,3.31,1.57,5.17,5.17,0,0,0,1.83-.22,4.68,4.68,0,0,0,1.6-1,8.83,8.83,0,0,0,2.09-3.24,8.47,8.47,0,0,1-1.83,3.51,4.82,4.82,0,0,1-1.7,1.13,5.36,5.36,0,0,1-2,.35,6.17,6.17,0,0,1-3.72-1.63,7.48,7.48,0,0,1-2.32-3.37,3.29,3.29,0,0,1,.17-2.15,8.5,8.5,0,0,1,1-1.8,12,12,0,0,1,1.3-1.55,5.27,5.27,0,0,1,.83-.67,1.53,1.53,0,0,1,1.18-.08,10,10,0,0,1,1.82.91l1.7,1A7.8,7.8,0,0,0,385.91,163.86Z" style="fill: rgb(38, 50, 56); transform-origin: 380.022px 166.294px;" id="elz2u0k9ayij" class="animable"></path><path d="M351.87,179.61,380.78,185l-.4.91s11.85-12.29,17-16.16c6-4.52,5.7,1.91,2.87,8.53s-20,36.58-35.87,44.74c-5.54,2.84-17.44-.87-18.76-5.09C343.22,210.37,351.87,179.61,351.87,179.61Z" style="fill: #6A96F0; transform-origin: 373.699px 196.127px;" id="elufdooh7otlr" class="animable"></path><path d="M380.45,185.75a38.72,38.72,0,0,0-3.73,3.28c-1.54,1.45-3.05,2.92-4.56,4.4q-4.53,4.41-9,8.93c-.37.38-.73.77-1.09,1.15-.63.28-1.23.61-1.84.92s-1.46.76-2.21,1.12a.08.08,0,0,0,.07.14c.74-.32,1.49-.63,2.21-1q.62-.3,1.23-.63c-1.12,1.16-2.24,2.32-3.34,3.5-.06.07,0,.17.12.11,6.19-5.61,12.19-11.46,18-17.47.83-.86,3.47-3.41,4.19-4.36C380.58,185.8,380.52,185.7,380.45,185.75Z" style="fill: rgb(38, 50, 56); transform-origin: 369.264px 196.712px;" id="elwcsvzaofzs7" class="animable"></path><path d="M375.6,189.72a55.39,55.39,0,0,0-5.54-1.39c-1.86-.43-3.73-.8-5.6-1.15-3.75-.72-7.53-1.33-11.31-1.83-.13,0-.18.16,0,.19,3.72,1,7.49,1.81,11.26,2.56,1.87.37,3.74.73,5.63,1a52.91,52.91,0,0,0,5.59.78C375.69,189.91,375.69,189.75,375.6,189.72Z" style="fill: rgb(38, 50, 56); transform-origin: 364.352px 187.617px;" id="eleglznsighec" class="animable"></path><path d="M397.26,184.18c-4.35,6.84-8.78,13.62-13.56,20.17-1.4,1.91-2.76,3.85-4.18,5.76,0,.08.05.19.12.11a165.47,165.47,0,0,0,14.15-19.92c1.23-2,2.42-4,3.53-6.08A0,0,0,1,0,397.26,184.18Z" style="fill: rgb(38, 50, 56); transform-origin: 388.42px 197.214px;" id="elcizgsda1hq" class="animable"></path><path d="M433.42,238.11c-.13.14-54.68,1.19-55.19.64-.71-.78,8.21-55.47,16.88-67.39,2.17-3,9.91-5,13.13-2,9.34,8.77,11.3,16.13,13.73,22.15a176.16,176.16,0,0,1,5.94,19.87C431.17,224.24,433.86,237.59,433.42,238.11Z" style="fill: #6A96F0; transform-origin: 405.829px 203.392px;" id="eltaq9prcoges" class="animable"></path><path d="M391.09,180.78c-1.6,4.17-3,8.43-4.29,12.71s-2.44,8.52-3.29,12.87c-.24,1.23-.47,2.46-.68,3.69s-.38,2.56-.7,3.81c0,.1.13.13.15,0a55.22,55.22,0,0,1,1.56-6.46c.57-2.18,1.17-4.35,1.72-6.54,1.06-4.3,2.23-8.57,3.47-12.82.72-2.43,1.48-4.84,2.23-7.26C391.29,180.71,391.13,180.68,391.09,180.78Z" style="fill: rgb(38, 50, 56); transform-origin: 386.697px 197.331px;" id="elbs6872lc0pd" class="animable"></path></g><g id="freepik--character-1--inject-136" class="animable" style="transform-origin: 165.773px 328.745px;"><polygon points="142.84 354.52 144.95 367.22 159.3 444.69 161.61 444.69 151.18 367.22 149.64 354.52 142.84 354.52" style="fill: rgb(219, 219, 219); transform-origin: 152.225px 399.605px;" id="elr6152h5gbcf" class="animable"></polygon><polygon points="149.64 354.52 142.84 354.52 144.95 367.22 151.18 367.22 149.64 354.52" style="fill: rgb(166, 166, 166); transform-origin: 147.01px 360.87px;" id="el7bq6ttiuej7" class="animable"></polygon><polygon points="97.79 444.69 100.1 444.69 114.45 367.22 116.56 354.52 109.76 354.52 108.22 367.22 97.79 444.69" style="fill: rgb(219, 219, 219); transform-origin: 107.175px 399.605px;" id="el6cakvetqqpc" class="animable"></polygon><polygon points="109.76 354.52 108.22 367.22 114.45 367.22 116.56 354.52 109.76 354.52" style="fill: rgb(166, 166, 166); transform-origin: 112.39px 360.87px;" id="eley5oqb7g27b" class="animable"></polygon><polygon points="54.77 444.69 57.08 444.69 71.42 367.22 73.54 354.52 66.74 354.52 65.2 367.22 54.77 444.69" style="fill: rgb(219, 219, 219); transform-origin: 64.155px 399.605px;" id="elkc76g18alan" class="animable"></polygon><polygon points="65.2 367.22 71.42 367.22 73.54 354.52 66.74 354.52 65.2 367.22" style="fill: rgb(166, 166, 166); transform-origin: 69.37px 360.87px;" id="elwt6az0k64z" class="animable"></polygon><polygon points="58.43 360.49 163.54 360.49 163.54 349.41 124.19 349.41 110.97 272.48 62.44 272.48 58.43 360.49" style="fill: rgb(219, 219, 219); transform-origin: 110.985px 316.485px;" id="elzbdeawnkza" class="animable"></polygon><polygon points="58.43 360.49 64.16 360.49 67.9 272.48 62.44 272.48 58.43 360.49" style="fill: rgb(166, 166, 166); transform-origin: 63.165px 316.485px;" id="elh6q3372aiyp" class="animable"></polygon><path d="M275.93,435.77c-1.95.67-57.67.86-59.8-.48-.82-.5-1.32-8.62-1.64-18.44,0,0-28.71-33.75-28.71-33.75l42.72-.24,21.92,33.76s21.36,9.47,23.55,11.19S277.87,435.12,275.93,435.77Z" style="fill: rgb(221, 106, 87); transform-origin: 231.278px 409.574px;" id="ely02y5vuyx1p" class="animable"></path><path d="M275.93,435.77c-1.95.67-57.67.86-59.8-.48-.73-.44-1.2-6.86-1.52-15.15,5.35.93,50.5,8.69,52.64,7.5s-4.66-5.48-4.66-5.48h.08c5.2,2.4,10.29,4.85,11.3,5.64C276.13,429.52,277.87,435.12,275.93,435.77Z" style="fill: rgb(38, 50, 56); transform-origin: 245.69px 428.214px;" id="elptybzixkyx" class="animable"></path><path d="M246.18,426.11s5.73-6.65,16.41-3.95" style="fill: rgb(38, 50, 56); transform-origin: 254.385px 423.812px;" id="el9fzhyz1c8m" class="animable"></path><path d="M254.14,416.24l-21.71,2.13L211,420.48s-43-61.13-45.61-63.8c-6-6-54.29-15.74-67.32-28.69-13.8-13.71-7.78-31.05-7.78-31.05h36s4.56,11.56,6.48,12.16c20.79,6.46,48.48,14.58,57.48,22.52C206.39,345.89,254.14,416.24,254.14,416.24Z" style="fill: rgb(38, 50, 56); transform-origin: 171.562px 358.71px;" id="el0npt1zn4lcm" class="animable"></path><path d="M247.38,409.62c-6.11.57-4.37.32-10.46,1-3,.31-22.59,2.4-25.32,3.19-.07,0,0,.12,0,.12,2.84.14,22.4-2.29,25.38-2.66,6.09-.77,4.33-.61,10.41-1.44A.09.09,0,0,0,247.38,409.62Z" style="fill: rgb(69, 90, 100); transform-origin: 229.53px 411.778px;" id="elj2isnq07yrb" class="animable"></path><path d="M212.15,410.13c-7.06-9.65-14.28-19.62-21.5-29.16l-10.83-14.31q-2.72-3.59-5.44-7.15a41.73,41.73,0,0,0-5.15-5.95,25.55,25.55,0,0,0-6.58-4c-2.51-1.12-5.09-2.08-7.69-3-5.4-1.86-10.9-3.37-16.37-5-10.15-3-20.43-6.29-29.17-12.41-7.86-5.51-14.42-13.69-16.29-23.28a21.78,21.78,0,0,1-.38-3.69.08.08,0,0,0-.16,0,32.12,32.12,0,0,0,3.54,13.36A38.86,38.86,0,0,0,105,326.72c7.8,6.91,17.67,10.9,27.49,14,5.44,1.71,11,3.19,16.41,4.85,2.77.85,5.51,1.74,8.22,2.74a56.93,56.93,0,0,1,7.57,3.25,21.81,21.81,0,0,1,6.24,5.06c1.85,2.17,3.49,4.53,5.2,6.81q5.4,7.17,10.83,14.32c7.27,9.61,14.49,19.27,21.87,28.8.92,1.19,1.85,2.36,2.77,3.54C211.85,410.47,212.45,410.54,212.15,410.13Z" style="fill: rgb(69, 90, 100); transform-origin: 152.411px 356.254px;" id="elm24dm53pgha" class="animable"></path><path d="M184.06,447.34c-1.95.63-57.67-.09-59.77-1.47-.81-.5,7.72-54.77,7.72-54.77l37.28.37-10.41,36.31s21.2,9.81,23.35,11.57S186,446.72,184.06,447.34Z" style="fill: rgb(221, 106, 87); transform-origin: 154.582px 419.335px;" id="elc5x1z7rt507" class="animable"></path><path d="M184.06,447.34c-1.95.63-57.67-.09-59.77-1.47-.26-.16.45-5.94,1.54-13.69C128.1,416,132,391.1,132,391.1l37.28.37-10.41,36.31s6.59,3.05,12.79,6.05h0c4.92,2.38,9.59,4.73,10.54,5.51C184.37,441.1,186,446.72,184.06,447.34Z" style="fill: rgb(221, 106, 87); transform-origin: 154.581px 419.335px;" id="elxnywlkwj5s" class="animable"></path><path d="M184.06,447.34c-1.95.63-57.67-.09-59.77-1.47-.26-.16.45-5.94,1.54-13.69,5.5.94,18.64,3.17,30.16,4.92l1.34.2c9.8,1.46,18.12,2.51,19,2,2.21-1.24-4.29-5.26-4.65-5.47,4.92,2.38,9.59,4.73,10.54,5.51C184.37,441.1,186,446.72,184.06,447.34Z" style="fill: rgb(38, 50, 56); transform-origin: 154.581px 439.875px;" id="el25ra04fldub" class="animable"></path><path d="M155.28,437.79s5.73-6.66,16.4-4Z" style="fill: rgb(38, 50, 56); transform-origin: 163.48px 435.476px;" id="elo4d9s0o1hgq" class="animable"></path><path d="M161.42,427.29l-39.1-.19s18.31-69.28,17.43-74.51c-.41-2.42-43.85,1.22-59.45-15.14C66.88,323.37,79.24,297,79.24,297l41.84-1s-3.86,11.32-6.49,18.34c0,0,57.37,4.05,63.81,16.63C185.27,344.41,161.42,427.29,161.42,427.29Z" style="fill: rgb(38, 50, 56); transform-origin: 126.845px 361.645px;" id="elzwlvb955mcr" class="animable"></path><path d="M120,298.78c-.42,2.22-.78,4.45-1.29,6.65-.24,1-.46,2.09-.77,3.11a2,2,0,0,1-.7,1.14,2.48,2.48,0,0,1-1.39.31,1.47,1.47,0,0,1-1.67-1.62c0-2.06,1.38-9.08,1.46-9.66,0-.11-.36-.16-.39,0-1,4.41-2.37,10-1.53,11.11a3,3,0,0,0,3.85.68,2.81,2.81,0,0,0,1-1.72c.25-1,.4-2,.58-2.93.42-2.32.87-4.63,1.17-7A.19.19,0,0,0,120,298.78Z" style="fill: rgb(69, 90, 100); transform-origin: 116.89px 304.763px;" id="eluyxe87y737" class="animable"></path><path d="M115.2,310.8a8,8,0,0,0-.17.85c-.06.29-.12.57-.19.85s-.13.57-.21.86-.12.56-.18.85a.11.11,0,0,0,.2.07,8.08,8.08,0,0,0,.35-.8c.09-.29.18-.57.26-.86s.14-.57.2-.86a3.77,3.77,0,0,0,.15-.89C115.61,310.67,115.27,310.59,115.2,310.8Z" style="fill: rgb(69, 90, 100); transform-origin: 115.03px 312.502px;" id="el2fypf2lj6qr" class="animable"></path><path d="M146.62,350.7c-.8-2.16-3.09-2.46-5.1-2.59q-4.32-.28-8.63-.73-8.61-.9-17.14-2.48a127.68,127.68,0,0,1-16-3.71A34.39,34.39,0,0,1,86.63,334,20.29,20.29,0,0,1,80,321.91a35.55,35.55,0,0,1,.23-8.56c.33-2.85.74-5.68,1.31-8.49.29-1.39.61-2.76,1-4.12a.08.08,0,0,0-.15,0,104.89,104.89,0,0,0-3,16.68A22.06,22.06,0,0,0,80,325.1a19.8,19.8,0,0,0,3,6c5.92,8.2,16.11,11.17,25.53,13.2q8.46,1.83,17,3c2.77.37,5.55.7,8.33,1s5.63.42,8.44.67a4.32,4.32,0,0,1,3.23,1.31,4.45,4.45,0,0,1,.51,3.37c-.21,1.31-.6,2.6-.92,3.89s-.69,2.75-1,4.12q-2.16,8.59-4.29,17.21c-2.83,11.43-5.73,22.86-8.37,34.34-.33,1.42-.65,2.84-.95,4.27a.1.1,0,0,0,.2.05c1.66-5.67,3-11.43,4.49-17.16s2.92-11.46,4.35-17.19,2.86-11.39,4.27-17.09q1-4.31,2.12-8.61C146.43,355.37,147.41,352.81,146.62,350.7Z" style="fill: rgb(69, 90, 100); transform-origin: 113.103px 359.148px;" id="elq1fdcrjrdb" class="animable"></path><path d="M161.84,420.65c-4.53-.28-9.07-.39-13.61-.54s-9.06-.21-13.59-.13c-2.58,0-5.15.22-7.73.26-.1,0-.09.15,0,.15,4.54,0,9.07.36,13.61.38s9.06,0,13.59,0c2.57,0,5.15.09,7.73.07C162,420.82,162,420.66,161.84,420.65Z" style="fill: rgb(69, 90, 100); transform-origin: 144.399px 420.394px;" id="eltu3x5huxdu" class="animable"></path><path d="M98.65,303.11a2.83,2.83,0,0,1-.23.57.08.08,0,0,0,0,.1c-.93,3.1-2.1,6.29-4.82,8.25A15.12,15.12,0,0,1,89,314.24c-1.92.56-3.92.72-5.85,1.25a.21.21,0,0,0,.07.4,22.19,22.19,0,0,0,6.44-.66,13,13,0,0,0,5-2.32c3-2.43,3.85-6.09,4.25-9.78C98.9,303,98.69,303,98.65,303.11Z" style="fill: rgb(69, 90, 100); transform-origin: 90.9689px 309.471px;" id="elv8lgzsw1qf" class="animable"></path><path d="M177.24,328.89c-1.81-2.43-4.47-3.74-7.29-4.66-19-6.24-42.29-9-55-10.05-.1,0-.14.14,0,.15,13.74,2.07,48.91,6.78,58.85,12.71,4.26,2.54,6.13,8.63,4.94,18.65-.95,8-2,16.6-3.31,24.51,0,.28.14.26.2,0,1.51-7.14,2.81-14.95,3.73-22.19C180.1,341.75,181.28,334.31,177.24,328.89Z" style="fill: rgb(69, 90, 100); transform-origin: 147.485px 342.291px;" id="elw3o9v90i0w" class="animable"></path><path d="M99.77,215.78c-4.5,5.71-5,14.27-5,14.27s-3.88,9-2,13.43a8.4,8.4,0,0,0,6,5L98.05,246s2,3.06,7.69,3.71,12.72-1.92,16.27-4.29a14.57,14.57,0,0,0,5-5.56l-1,3.85a11,11,0,0,0,7.79-6.88c2.48-6.06-7.6-13.12-8.58-14.78s-3.51-14.34-16.71-10.51C108.5,211.55,102.87,211.86,99.77,215.78Z" style="fill: rgb(38, 50, 56); transform-origin: 113.224px 230.318px;" id="elcjx224qqk8u" class="animable"></path><path d="M96.86,248.39a8.62,8.62,0,0,1-4-3.3,7.86,7.86,0,0,1-1.46-4.94,17.39,17.39,0,0,1,1.84-6c.88-2,1.9-3.89,2.74-5.88,0-.11-.12-.18-.19-.09A49,49,0,0,0,93,233a22.3,22.3,0,0,0-2.1,4.84,8.49,8.49,0,0,0,0,4.79A8.1,8.1,0,0,0,92.94,246a18,18,0,0,0,3.86,2.53C96.88,248.56,97,248.42,96.86,248.39Z" style="fill: rgb(38, 50, 56); transform-origin: 93.7398px 238.336px;" id="els5rncfagg5g" class="animable"></path><path d="M134.22,230.86c-2.18-4.52-6.78-7-9.85-10.79-1.67-2.06-3.05-4.39-5.1-6.1,0-.05-.13,0-.08.09a32,32,0,0,1,4.14,5.41,34,34,0,0,0,4.67,5.07c3.06,2.88,6.71,6.28,6.64,10.83,0,2.11-1,4.54-3,5.44-.08,0,0,.17.07.12a6.65,6.65,0,0,0,3.24-4.16A8.48,8.48,0,0,0,134.22,230.86Z" style="fill: rgb(38, 50, 56); transform-origin: 127.182px 227.445px;" id="elojskwzky95k" class="animable"></path><path d="M134.57,232.11a8.72,8.72,0,0,0-1.79-5,12.45,12.45,0,0,0-4.29-3.13c-1.82-.92-3.72-1.76-5-3.41,0-.07-.15,0-.1.09,2.06,2.72,5.45,3.7,7.93,5.9,2.84,2.52,3.33,6.62,2,10a14.39,14.39,0,0,1-3.91,5.44s0,.07,0,0C132.38,239.64,134.8,236.1,134.57,232.11Z" style="fill: rgb(38, 50, 56); transform-origin: 128.982px 231.286px;" id="el2k6e12lpf9x" class="animable"></path><path d="M121.8,261c7.42,6.7,33.86,27.15,43.55,24.79,6.35-1.55,28.49-15.09,29.82-22.54.58-3.24-10.49-18.51-13.26-16.34s-20.21,13.69-22.82,14.14-29.36-11-38.15-12.74C105.78,245.23,117.81,257.39,121.8,261Z" style="fill: rgb(221, 106, 87); transform-origin: 154.343px 266.339px;" id="elf78e8uj7xuh" class="animable"></path><path d="M184.86,239.57c3.22-2,6.76-4.47,10.65-5.21s8.17,3.7,8.48,5.16.76,10.9-3.12,11.71-3-6.69-3.31-7.46-.68-1.77-1.39-1.54-12.23,9-12.23,9Z" style="fill: rgb(221, 106, 87); transform-origin: 194.063px 242.784px;" id="eltuj22a8dkz" class="animable"></path><path d="M185.22,240.05c.22,0,9.73-6.31,13.62-7.05s8.17,3.7,8.47,5.17.76,10.89-3.11,11.7-3-6.69-3.32-7.46-.67-1.77-1.39-1.54-12.22,9-12.22,9Z" style="fill: rgb(221, 106, 87); transform-origin: 196.361px 241.424px;" id="el78nl4622s7c" class="animable"></path><path d="M202.78,249.66a4.73,4.73,0,0,1-1.12-2.15,8.2,8.2,0,0,1-.38-2.5,13.86,13.86,0,0,0,0-2.23,4.36,4.36,0,0,0-1-1.93c-.41-.49-.94-.18-1.4.09a19.76,19.76,0,0,0-1.9,1.4c-.67.52-1.32,1.06-2,1.59a21.5,21.5,0,0,0-2,1.7c0,.05,0,.14.07.1.63-.38,1.19-.86,1.78-1.3s1.33-1,2-1.47,1.23-.94,1.87-1.39c.22-.15.66-.52,1-.52s.6.7.72.93a3.66,3.66,0,0,1,.3,2.12,10.79,10.79,0,0,0,.05,2.2,5.46,5.46,0,0,0,.58,2,8.5,8.5,0,0,0,1.27,1.48C202.74,249.82,202.85,249.72,202.78,249.66Z" style="fill: rgb(38, 50, 56); transform-origin: 197.891px 245.191px;" id="elg7blko921ss" class="animable"></path><path d="M175.07,252.78s8.67-12,10.5-14.43c3.66-4.83,20.92-16.49,23.49-17.32s4.65,4.36-7,12.64c-6.14,4.37-6.53,8.49-6,10.6s3.46,5.68,7,4.83,4.82-6.6,8-7.88,2.27,5.25.67,9.24a22.54,22.54,0,0,1-8.11,9.6c-2.87,1.82-11.64,8-11.64,8Z" style="fill: rgb(221, 106, 87); transform-origin: 194.129px 244.502px;" id="elpyppaixu8po" class="animable"></path><path d="M207.11,245.63c-1.13,1.33-2.39,3-4.16,3.46s-3.28-.49-4.45-1.82a7,7,0,0,1-2-4.78,8.54,8.54,0,0,1,1.62-4.56,20.73,20.73,0,0,1,4.2-4.27.07.07,0,1,0-.09-.1c-1.51,1.08-6.22,4.28-6.3,9.05a7.14,7.14,0,0,0,2.07,4.86c1.1,1.27,2.55,2.41,4.33,2.19,2.16-.28,3.63-2.39,4.89-4C207.29,245.58,207.17,245.56,207.11,245.63Z" style="fill: rgb(38, 50, 56); transform-origin: 201.586px 241.607px;" id="elkybeohozeo" class="animable"></path><path d="M174.29,249.13,187,274s-16.78,12.32-26.14,13.1c-11.36,1-39.27-23.17-43.47-27.31-6.88-6.8-8.19-12.18-3.06-13,2-.33,5,0,9,1.29,4.17,1.31,29,10.79,35.92,11.61C163.05,260.14,174.29,249.13,174.29,249.13Z" style="fill: rgb(69, 90, 100); transform-origin: 149.104px 266.9px;" id="eld257417n7i" class="animable"></path><path d="M174.28,249.13,187,274s-2.78,2-6.72,4.51c-5.73,3.6-13.88,8.12-19.42,8.58-11.35,1-39.28-23.17-43.47-27.31-5-4.92-7-9.1-5.85-11.34a3.56,3.56,0,0,1,2.79-1.66c2-.32,5,0,9,1.3,4.17,1.31,29,10.79,35.92,11.61C163.05,260.14,174.28,249.13,174.28,249.13Z" style="fill: rgb(69, 90, 100); transform-origin: 149.112px 266.892px;" id="eldx8g02ypfyv" class="animable"></path><path d="M187,274s-2.78,2-6.72,4.51c-2.51,1.57-5.46,3.32-8.47,4.83-3.88,1.94-7.83,3.49-11,3.75-11.35,1-39.28-23.17-43.47-27.31-5-4.92-7-9.1-5.85-11.34a2.25,2.25,0,0,1,.58-.72,4.22,4.22,0,0,1,2.21-.94c2-.32,5,0,9,1.3,4.17,1.31,29,10.79,35.92,11.61,3.85.46,15.08-10.55,15.08-10.55Z" style="fill: rgb(69, 90, 100); transform-origin: 149.087px 266.892px;" id="elf0vkhc4uecj" class="animable"></path><path d="M181.81,275.19c-2-3.62-9.58-18.71-11-22.09-.1-.23,0-.35.16-.12,6.22,10.69,9.21,18.48,11,22.13C182,275.2,181.86,275.28,181.81,275.19Z" style="fill: rgb(38, 50, 56); transform-origin: 176.372px 264.043px;" id="elv4m1sp4n6u" class="animable"></path><path d="M171.8,283.33c-3.88,1.94-7.83,3.49-11,3.75-11.35,1-39.28-23.17-43.47-27.31-5-4.92-7-9.1-5.85-11.34a2.25,2.25,0,0,1,.58-.72Z" style="fill: rgb(38, 50, 56); transform-origin: 141.482px 267.41px;" id="elzkp9p3qh3ui" class="animable"></path><path d="M74.73,307.88c4,.58,13.55,1.44,23.72,2.3,16.22,1.34,34.1,2.64,34.1,2.64l-3-31s4.15-6,3.39-11.81c-.88-6.56-11.36-20.05-12.48-21.09-3.79-3.53-9.26-5.63-14.5-2.81a13.7,13.7,0,0,0-3,2.21,1.53,1.53,0,0,0-.18.18c-.29.28-.6.58-.89.91C88.86,263.48,74.73,307.88,74.73,307.88Z" style="fill: rgb(69, 90, 100); transform-origin: 103.881px 278.81px;" id="el6qv8tgavwdu" class="animable"></path><path d="M98.17,252.9c-10.7,14.56-24.63,41.69-19.74,46,10.7,9.46,33,20.63,43.77,21.55,3.15.27,9-20.34,6.87-23s-29-10.15-29.24-12.2c-.16-1.17,3.35-14.14,6.37-26.66C109.69,244.22,101.23,248.73,98.17,252.9Z" style="fill: rgb(221, 106, 87); transform-origin: 103.474px 284.619px;" id="elnkkv30r5og" class="animable"></path><path d="M123.54,295.94s9.63-.27,15.93-.15c3.51.07,9.53.72,12.09,1.95,3.83,1.84,18.66,12,16.28,15.64-2.16,3.3-13.8-7-13.8-7s12.67,9.38,9.34,12.89-14.92-9.93-14.92-9.93,12.8,9.94,8.79,13c-3,2.32-14.21-9.25-14.21-9.25S154,321.69,151,324.21C147.65,327,136.65,317,136.65,317c-8.73,5.12-15,4-19.32,2.65C116.28,319.28,123.54,295.94,123.54,295.94Z" style="fill: rgb(221, 106, 87); transform-origin: 142.662px 310.23px;" id="el6wk9h5b5pce" class="animable"></path><path d="M149.87,302.82c1.53,1.05,3.08,2.1,4.51,3.28s2.82,2.41,4.13,3.72a32.16,32.16,0,0,1,4.63,5.58,68.07,68.07,0,0,0-9.1-8.92c-1.42-1.18-2.79-2.43-4.22-3.61A0,0,0,0,1,149.87,302.82Z" style="fill: rgb(38, 50, 56); transform-origin: 156.48px 309.11px;" id="elmhvi83jh3ke" class="animable"></path><path d="M145.51,307.9c1.9,1.43,3.83,2.77,5.66,4.28s3.42,3.08,5.13,4.7c.13.13,0,.16-.12,0-1.77-1.55-3.54-2.85-5.33-4.38s-3.53-3.14-5.38-4.6C145.45,307.92,145.48,307.88,145.51,307.9Z" style="fill: rgb(38, 50, 56); transform-origin: 150.909px 312.442px;" id="elxahpx6v3hbr" class="animable"></path><path d="M141,311.59a53,53,0,0,1,8.14,7.2c.13.13,0,.15-.15,0-2.67-2.44-4.74-4.38-8.06-7.12C140.86,311.65,140.92,311.55,141,311.59Z" style="fill: rgb(38, 50, 56); transform-origin: 145.046px 315.238px;" id="elvibfz9rw5p" class="animable"></path><path d="M111.47,320.47,126,294.79s-24.81-8.67-25.43-9.47,4.32-17,6.4-27.66-2.74-13.2-10.64-3.14-22.44,36.66-20,43.14S111.47,320.47,111.47,320.47Z" style="fill: rgb(69, 90, 100); transform-origin: 101.029px 284.323px;" id="el0s8jokpj314o" class="animable"></path><path d="M120.72,294.53a21,21,0,0,0-1.59,2.49l-1.66,2.72c-1.12,1.85-2.2,3.72-3.26,5.6-2.09,3.73-4.16,7.48-6.26,11.2,0,.09.08.16.14.08,2.3-3.62,4.57-7.24,6.76-10.93,1.09-1.82,2.14-3.66,3.13-5.53.5-.94,1-1.88,1.48-2.82a22,22,0,0,0,1.34-2.76C120.82,294.53,120.75,294.5,120.72,294.53Z" style="fill: rgb(38, 50, 56); transform-origin: 114.377px 305.587px;" id="elx5a9o4ci5sg" class="animable"></path><path d="M111.37,320.28c-4.55-2.41-9-5-13.48-7.6s-9-5.22-13.23-8.15c-1.2-.83-2.41-1.65-3.59-2.51s-2.26-1.8-3.48-2.55c-.09-.06-.17.07-.1.13a23.27,23.27,0,0,0,2.91,2.52c1,.82,2.08,1.62,3.14,2.41,2,1.53,4.19,3,6.35,4.33,4.34,2.78,8.86,5.27,13.45,7.61,2.64,1.34,5.33,2.59,8,3.95A.08.08,0,0,0,111.37,320.28Z" style="fill: rgb(38, 50, 56); transform-origin: 94.4317px 309.937px;" id="elhzherbqjt2r" class="animable"></path><path d="M126,294.61c-2.24-.87-24.21-9.24-25.12-9.41,0-.68,1.94-8.53,2.37-10.35.1-.43.19-.85.28-1.27.33-.83.65-1.67,1-2.51a29.49,29.49,0,0,1,1.56-3.32.08.08,0,0,0-.14-.08c-.57,1.1-1.15,2.21-1.67,3.33l-.27.59.48-2.1c.41-1.86.89-3.73,1.16-5.62a.09.09,0,0,0-.17,0c-.67,1.88-1.14,3.83-1.67,5.75s-3.58,15.76-3.47,15.85c.81.6,23.48,8.52,25.65,9.33C126,294.79,126.06,294.64,126,294.61Z" style="fill: rgb(38, 50, 56); transform-origin: 113.182px 279.305px;" id="eltlnaxwkhiyq" class="animable"></path><rect x="114.92" y="323.93" width="51.4" height="2.31" style="fill: #6A96F0; transform-origin: 140.62px 325.085px;" id="elrpv0omwipof" class="animable"></rect><g id="elg9ai7solzd"><rect x="140.45" y="323.93" width="25.87" height="2.31" style="opacity: 0.1; transform-origin: 153.385px 325.085px;" class="animable" id="elpui4tm37oma"></rect></g><polygon points="143.24 326.23 193.33 326.23 199.88 292.21 149.78 292.21 143.24 326.23" style="fill: #6A96F0; transform-origin: 171.56px 309.22px;" id="el0r7wj0gcjlbd" class="animable"></polygon><path d="M168.51,309.22a2.75,2.75,0,0,0,2.78,3,3.41,3.41,0,0,0,3.32-3,2.76,2.76,0,0,0-2.79-3.05A3.39,3.39,0,0,0,168.51,309.22Z" style="fill: rgb(255, 255, 255); transform-origin: 171.562px 309.195px;" id="elc2c1pg0pjne" class="animable"></path><path d="M107.52,247c.31.79,5,5.53,8.67,4.82,1.2-.24.22-6.87.22-6.87l0-.51.55-7.09-8.81-4-1.27-.52s0,1.95,0,4.38v.35c0,.13,0,.26,0,.39,0,.36,0,.73,0,1.1s0,.56,0,.85,0,.59,0,.88A47.87,47.87,0,0,0,107.52,247Z" style="fill: rgb(221, 106, 87); transform-origin: 111.92px 242.361px;" id="elubtdfz6ve4b" class="animable"></path><path d="M106.9,237.19a14.24,14.24,0,0,0,9.55,7.25l.55-7.09-8.81-4-1.27-.52S106.9,234.76,106.9,237.19Z" style="fill: rgb(38, 50, 56); transform-origin: 111.95px 238.635px;" id="el13hcm6rnbvbb" class="animable"></path><path d="M124.78,225c2.89,12.14-4.06,15.24-6.68,15.86-2.38.56-10.54,2.18-14.67-9.6s.6-17,6-18.54S121.89,212.88,124.78,225Z" style="fill: rgb(221, 106, 87); transform-origin: 113.666px 226.752px;" id="elz2ewxt09iyj" class="animable"></path><path d="M123.14,223a8.38,8.38,0,0,1-.86,0,1.4,1.4,0,0,1-.87-.21.44.44,0,0,1-.09-.53,1.09,1.09,0,0,1,1-.43,1.62,1.62,0,0,1,1.1.4A.47.47,0,0,1,123.14,223Z" style="fill: rgb(38, 50, 56); transform-origin: 122.401px 222.417px;" id="elrzzj1qa4t1l" class="animable"></path><path d="M115.28,224.49a7.77,7.77,0,0,0,.8-.31,1.37,1.37,0,0,0,.76-.47.44.44,0,0,0-.09-.54,1.1,1.1,0,0,0-1.11-.08,1.69,1.69,0,0,0-.91.73A.47.47,0,0,0,115.28,224.49Z" style="fill: rgb(38, 50, 56); transform-origin: 115.785px 223.743px;" id="elb6wxn2q2jcq" class="animable"></path><path d="M117.43,227.33s-.05,0-.05.09c.19.83.26,1.81-.44,2.23,0,0,0,0,0,0C117.85,229.39,117.74,228.09,117.43,227.33Z" style="fill: rgb(38, 50, 56); transform-origin: 117.297px 228.49px;" id="elgw7h80f6chq" class="animable"></path><path d="M116.52,226.6c-1.36.15-1,2.87.31,2.72S117.66,226.47,116.52,226.6Z" style="fill: rgb(38, 50, 56); transform-origin: 116.638px 227.961px;" id="elhdfmh2l4alb" class="animable"></path><path d="M116,226.82c-.21.19-.4.5-.69.57s-.61-.17-.87-.41c0,0,0,0,0,0,.07.52.35,1,.92,1s.81-.52.86-1.06C116.2,226.88,116.1,226.75,116,226.82Z" style="fill: rgb(38, 50, 56); transform-origin: 115.33px 227.39px;" id="eln4hkswj022e" class="animable"></path><path d="M122,226.3s.07,0,.07.06c.09.85.34,1.8,1.14,2,0,0,0,0,0,0C122.3,228.38,122,227.11,122,226.3Z" style="fill: rgb(38, 50, 56); transform-origin: 122.605px 227.33px;" id="ellvz9v67xj8s" class="animable"></path><path d="M122.65,225.31c1.34-.29,1.83,2.41.59,2.68S121.53,225.56,122.65,225.31Z" style="fill: rgb(38, 50, 56); transform-origin: 122.985px 226.649px;" id="el06qu3x2up9jc" class="animable"></path><path d="M123.25,225.39c.24.1.5.32.75.29s.47-.36.61-.68c0,0,0,0,0,0,.11.51,0,1.08-.44,1.27s-.85-.21-1.06-.71C123.11,225.5,123.15,225.35,123.25,225.39Z" style="fill: rgb(38, 50, 56); transform-origin: 123.88px 225.659px;" id="el1hijc4ukq9" class="animable"></path><path d="M118.19,233.85c.23.18.46.43.77.42a2.2,2.2,0,0,0,.88-.3s.06,0,0,0a1.12,1.12,0,0,1-1,.57.9.9,0,0,1-.74-.68C118.1,233.85,118.16,233.83,118.19,233.85Z" style="fill: rgb(38, 50, 56); transform-origin: 118.983px 234.191px;" id="ell28ro3t0jd" class="animable"></path><path d="M121.21,230.25a18.42,18.42,0,0,1,.47,1.82c0,.06-.13.1-.33.15h0a2.85,2.85,0,0,1-2.9-.61c-.05-.05,0-.12.08-.09a4.34,4.34,0,0,0,2.68.32c0-.17-.71-2.08-.62-2.1a5.2,5.2,0,0,1,1.39.09c-.7-2.58-1.82-5-2.48-7.59a.08.08,0,0,1,.14-.06,43.12,43.12,0,0,1,3,8.06C122.75,230.56,121.47,230.32,121.21,230.25Z" style="fill: rgb(38, 50, 56); transform-origin: 120.538px 227.268px;" id="el6mcmji2jl4k" class="animable"></path><path d="M121.23,231.77a3.44,3.44,0,0,1-1,1.42,1.61,1.61,0,0,1-.9.32c-.71,0-.9-.6-.92-1.15a3.93,3.93,0,0,1,.07-.88A4.52,4.52,0,0,0,121.23,231.77Z" style="fill: rgb(38, 50, 56); transform-origin: 119.819px 232.495px;" id="el0u3ryd1k0fn" class="animable"></path><path d="M120.18,233.19a1.61,1.61,0,0,1-.9.32c-.71,0-.9-.6-.92-1.15A1.61,1.61,0,0,1,120.18,233.19Z" style="fill: rgb(255, 162, 190); transform-origin: 119.27px 232.911px;" id="el6mpdq5fyvi" class="animable"></path><path d="M103.53,231.33c1.4-.31,4.43-4.79,3.42-11.62,0,0,.48,6.19.17,7.16s1.69-2.52.95-8a22.54,22.54,0,0,0,6.12,2c2.71.3,4.29,0,4.44-.2s-3.85-.8-5.08-1.82c0,0,7.42,2.07,10.64,1.79.37,0-.43-7.66-5.88-10.06s-12.65,2.35-14.41,4.71c0,0-2.4.76-4.47,4.83S102,231.67,103.53,231.33Z" style="fill: rgb(38, 50, 56); transform-origin: 111.587px 220.631px;" id="el8f9tbd2eq3q" class="animable"></path><path d="M121.48,227c-.43-2.09.34-4,1.73-4.32s2.87,1.18,3.31,3.28-.34,4-1.73,4.33S121.92,229.05,121.48,227Zm.51-.1c.38,1.81,1.59,3.1,2.69,2.88s1.7-1.9,1.33-3.72-1.59-3.1-2.7-2.87S121.62,225,122,226.85Z" style="fill: #6A96F0; transform-origin: 124.002px 226.485px;" id="elohdcvcvro7q" class="animable"></path><path d="M111.92,228.94a3.64,3.64,0,1,1,4.34,3.07A3.76,3.76,0,0,1,111.92,228.94Zm.51-.11a3.11,3.11,0,1,0,2.36-3.92A3.25,3.25,0,0,0,112.43,228.83Z" style="fill: #6A96F0; transform-origin: 115.526px 228.434px;" id="elvxi1jup3x0j" class="animable"></path><path d="M118.78,227.16c1.77-1.07,2.76-.62,2.77-.62l.23-.46s-1.23-.6-3.27.63Z" style="fill: #6A96F0; transform-origin: 120.145px 226.547px;" id="el9n06mumuekh" class="animable"></path><path d="M112.1,228.55V228c-.34,0-6.12.08-7,.21s-2.74,1.73-2.94,1.91l.34.39a9.9,9.9,0,0,1,2.64-1.78h0C105.85,228.65,109.21,228.62,112.1,228.55Z" style="fill: #6A96F0; transform-origin: 107.13px 229.255px;" id="eljdvpjqs685e" class="animable"></path><path d="M105.58,231.76s-3.27-3.45-4.87-2.23,1.24,6.5,3.41,7a2.1,2.1,0,0,0,2.63-1.53Z" style="fill: rgb(221, 106, 87); transform-origin: 103.496px 232.941px;" id="elrwo15r3p2ac" class="animable"></path><path d="M101.56,231s0,0,0,.06a5.33,5.33,0,0,1,3.22,2.9,1.16,1.16,0,0,0-1.77-.06s0,.08,0,.07a1.28,1.28,0,0,1,1.48.24,6.07,6.07,0,0,1,.84,1c.09.12.31,0,.24-.13l0,0C105.37,233.27,103.56,230.91,101.56,231Z" style="fill: rgb(38, 50, 56); transform-origin: 103.572px 233.128px;" id="eld7fus1m6ixf" class="animable"></path><path d="M116.47,244.91l-1.32,6.8-7.94-6.93L105,247.46s9.18,12,9.12,11.39l1.55-5.94,4.48,3.06-1.95-8.55Z" style="fill: rgb(235, 235, 235); transform-origin: 112.575px 251.826px;" id="eljpx7j5vil5f" class="animable"></path><path d="M118.28,247.49c0-.05-.12-.06-.11,0,.17,1.46,1.37,6.58,1.64,8h0c-.19-.14-4.12-2.66-4.14-2.6-.4,1-1.54,5.3-1.6,5.68-1.61-1.78-7.35-9.49-9.16-11.12a.06.06,0,0,0-.08.08c1.48,1.92,9.22,11.88,9.31,11.83a59.52,59.52,0,0,0,1.61-6.27,43.2,43.2,0,0,0,4.71,3.27C120.21,254.79,118.76,249,118.28,247.49Z" style="fill: rgb(38, 50, 56); transform-origin: 112.642px 253.402px;" id="el8r591m3etkg" class="animable"></path></g><defs>     <filter id="active" height="200%">         <feMorphology in="SourceAlpha" result="DILATED" operator="dilate" radius="2"></feMorphology>                <feFlood flood-color="#32DFEC" flood-opacity="1" result="PINK"></feFlood>        <feComposite in="PINK" in2="DILATED" operator="in" result="OUTLINE"></feComposite>        <feMerge>            <feMergeNode in="OUTLINE"></feMergeNode>            <feMergeNode in="SourceGraphic"></feMergeNode>        </feMerge>    </filter>    <filter id="hover" height="200%">        <feMorphology in="SourceAlpha" result="DILATED" operator="dilate" radius="2"></feMorphology>                <feFlood flood-color="#ff0000" flood-opacity="0.5" result="PINK"></feFlood>        <feComposite in="PINK" in2="DILATED" operator="in" result="OUTLINE"></feComposite>        <feMerge>            <feMergeNode in="OUTLINE"></feMergeNode>            <feMergeNode in="SourceGraphic"></feMergeNode>        </feMerge>            <feColorMatrix type="matrix" values="0   0   0   0   0                0   1   0   0   0                0   0   0   0   0                0   0   0   1   0 "></feColorMatrix>    </filter></defs></svg>